<svg xmlns="http://www.w3.org/2000/svg" version="1.1" xmlns:xlink="http://www.w3.org/1999/xlink" width="512" height="512" x="0" y="0" viewBox="0 0 60 60" style="enable-background:new 0 0 512 512" xml:space="preserve" class=""><g><g fill="#000" fill-rule="nonzero"><path d="M57 0h-6a3 3 0 0 0-3 3v2H12V3a3 3 0 0 0-3-3H3a3 3 0 0 0-3 3v6a3 3 0 0 0 3 3h2v36H3a3 3 0 0 0-3 3v6a3 3 0 0 0 3 3h6a3 3 0 0 0 3-3v-2h36v2a3 3 0 0 0 3 3h6a3 3 0 0 0 3-3v-6a3 3 0 0 0-3-3h-2V12h2a3 3 0 0 0 3-3V3a3 3 0 0 0-3-3zM2 9V3a1 1 0 0 1 1-1h6a1 1 0 0 1 1 1v6a1 1 0 0 1-1 1H3a1 1 0 0 1-1-1zm8 48a1 1 0 0 1-1 1H3a1 1 0 0 1-1-1v-6a1 1 0 0 1 1-1h6a1 1 0 0 1 1 1zm48-6v6a1 1 0 0 1-1 1h-6a1 1 0 0 1-1-1v-6a1 1 0 0 1 1-1h6a1 1 0 0 1 1 1zm-7-3a3 3 0 0 0-3 3v2H25V28h1a2 2 0 0 0 2-2v-1h25v23zM22 26v-4h4v4zm31-11h-1a1 1 0 0 0 0 2h1v6H28v-1a2 2 0 0 0-2-2h-4a2 2 0 0 0-2 2v4a2 2 0 0 0 2 2h1v25h-6v-1a1 1 0 0 0-2 0v1h-3v-2a3 3 0 0 0-3-3H7V12h2a3 3 0 0 0 3-3V7h36v2a3 3 0 0 0 3 3h2zm5-6a1 1 0 0 1-1 1h-6a1 1 0 0 1-1-1V3a1 1 0 0 1 1-1h6a1 1 0 0 1 1 1z" fill="#4a4a4a" opacity="1" data-original="#000000" class=""></path><path d="M46 38a1 1 0 0 0-1 1v4.586L33.414 32H38a1 1 0 0 0 0-2h-7a1 1 0 0 0-1 1v7a1 1 0 0 0 2 0v-4.586L43.586 45H39a1 1 0 0 0 0 2h7a1 1 0 0 0 1-1v-7a1 1 0 0 0-1-1zM16 45a1 1 0 0 0-1 1v2a1 1 0 0 0 2 0v-2a1 1 0 0 0-1-1zM16 39a1 1 0 0 0-1 1v2a1 1 0 0 0 2 0v-2a1 1 0 0 0-1-1zM16 33a1 1 0 0 0-1 1v2a1 1 0 0 0 2 0v-2a1 1 0 0 0-1-1zM16 27a1 1 0 0 0-1 1v2a1 1 0 0 0 2 0v-2a1 1 0 0 0-1-1zM16 21a1 1 0 0 0-1 1v2a1 1 0 0 0 2 0v-2a1 1 0 0 0-1-1zM24 15h-2a1 1 0 0 0 0 2h2a1 1 0 0 0 0-2zM30 15h-2a1 1 0 0 0 0 2h2a1 1 0 0 0 0-2zM36 15h-2a1 1 0 0 0 0 2h2a1 1 0 0 0 0-2zM42 15h-2a1 1 0 0 0 0 2h2a1 1 0 0 0 0-2zM48 15h-2a1 1 0 0 0 0 2h2a1 1 0 0 0 0-2zM18 15h-2a1 1 0 0 0-1 1v2a1 1 0 0 0 2 0v-1h1a1 1 0 0 0 0-2z" fill="#4a4a4a" opacity="1" data-original="#000000" class=""></path></g></g></svg>