<svg xmlns="http://www.w3.org/2000/svg" version="1.1" xmlns:xlink="http://www.w3.org/1999/xlink" width="512" height="512" x="0" y="0" viewBox="0 0 480.019 480.019" style="enable-background:new 0 0 512 512" xml:space="preserve" class=""><g><path d="m161.083 252.909 194.313-88.442c31.16-14.181 14.483-59.388-15.905-53.841-24.456-47.411-69.916-67.478-117.051-59.505C166.12-39.75 17.466-3.169 17.466 111.112v360.905a8 8 0 0 0 16 0V111.112c0-95.645 122.809-127.979 172.485-56.022a130.684 130.684 0 0 0-29.695 13.591C139.851 26.982 65.1 50.092 65.1 111.112v360.905a8 8 0 0 0 16 0V111.112c0-45.871 55.585-62.013 82.078-33.109-36.839 30.041-52.133 77.483-32.251 127.55-23.976 19.147-1.312 61.679 30.156 47.356zm-16.789-36.886a8 8 0 0 0 3.967-10.595c-53.02-116.49 118.453-197.236 176.21-88.992l-157.599 71.732a8 8 0 1 0 6.628 14.562l165.107-75.149c15.196-6.754 24.95 15.592 10.161 22.323l-194.313 88.442c-14.913 6.786-25.073-15.535-10.161-22.323z" fill="#4a4a4a" opacity="1" data-original="#000000" class=""></path><path d="m285.181 262.433-7.438-19.639a8.001 8.001 0 0 0-14.963 5.667l7.438 19.639a8 8 0 0 0 14.963-5.667zM341.87 412.123 327.698 374.7a8 8 0 1 0-14.962 5.666l14.172 37.423a8 8 0 0 0 14.962-5.666zM313.526 337.277l-14.172-37.422a8 8 0 1 0-14.963 5.667l14.172 37.422a8 8 0 0 0 14.963-5.667zM356.042 449.545a8 8 0 0 0-14.963 5.667l7.438 19.639a8.002 8.002 0 0 0 7.483 5.168c5.572 0 9.466-5.593 7.48-10.835zM225.107 290.746l-3.422-20.719a8.002 8.002 0 0 0-9.197-6.589 7.999 7.999 0 0 0-6.589 9.197l3.422 20.719a8 8 0 0 0 15.786-2.608zM241.395 389.363l-8.144-49.309a7.997 7.997 0 0 0-9.197-6.589 7.999 7.999 0 0 0-6.589 9.197l8.144 49.309a8 8 0 0 0 9.197 6.589 8 8 0 0 0 6.589-9.197zM249.539 438.671a8 8 0 0 0-15.786 2.608l3.422 20.719a8.002 8.002 0 0 0 7.883 6.698c4.965 0 8.704-4.45 7.903-9.305zM159.974 288.034c-4.408-.227-8.182 3.145-8.42 7.557l-2.159 39.942c-.248 4.582 3.399 8.432 7.995 8.432a7.999 7.999 0 0 0 7.981-7.568l2.159-39.942a7.998 7.998 0 0 0-7.556-8.421zM155.174 376.829c-4.414-.233-8.182 3.145-8.42 7.557l-2.159 39.942c-.248 4.582 3.399 8.432 7.995 8.432a7.999 7.999 0 0 0 7.981-7.568l2.159-39.942a7.998 7.998 0 0 0-7.556-8.421zM323.848 212.586a8 8 0 0 0-2.03 11.13l11.944 17.273a8 8 0 0 0 13.16-9.1l-11.944-17.273a8 8 0 0 0-11.13-2.03zM376.355 274.453a8 8 0 0 0-13.16 9.1l29.433 42.563a7.99 7.99 0 0 0 6.587 3.451c6.379 0 10.26-7.218 6.573-12.55zM435.22 359.582a8 8 0 0 0-13.16 9.1l11.944 17.272a7.99 7.99 0 0 0 6.587 3.45c6.379 0 10.259-7.219 6.573-12.551zM410.816 198.613l-16.142-13.433a8 8 0 1 0-10.235 12.299l16.142 13.433a8 8 0 0 0 10.235-12.299zM459.67 239.269l-16.142-13.433a8 8 0 0 0-10.235 12.299l16.142 13.433a8 8 0 0 0 10.235-12.299z" fill="#4a4a4a" opacity="1" data-original="#000000" class=""></path></g></svg>