<svg xmlns="http://www.w3.org/2000/svg" version="1.1" xmlns:xlink="http://www.w3.org/1999/xlink" width="512" height="512" x="0" y="0" viewBox="0 0 512 512" style="enable-background:new 0 0 512 512" xml:space="preserve" class=""><g><path d="M472 264h-24v-96a48.051 48.051 0 0 0-48-48H112a48.051 48.051 0 0 0-48 48v96H40a32.036 32.036 0 0 0-32 32v32a32.036 32.036 0 0 0 32 32v24a8 8 0 0 0 8 8h24a8 8 0 0 0 7.76-6.06L86.25 360h339.5l6.49 25.94A8 8 0 0 0 440 392h24a8 8 0 0 0 8-8v-24a32.042 32.042 0 0 0 32-32v-32a32.042 32.042 0 0 0-32-32zM80 168a32.042 32.042 0 0 1 32-32h288a32.042 32.042 0 0 1 32 32v96H80zM65.75 376H56v-16h13.75zM456 376h-9.75l-4-16H456zm32-48a16.021 16.021 0 0 1-16 16H40a16.021 16.021 0 0 1-16-16v-32a16.021 16.021 0 0 1 16-16h432a16.021 16.021 0 0 1 16 16z" fill="#4a4a4a" opacity="1" data-original="#000000" class=""></path><path d="M176 176a24 24 0 1 0 24 24 24.028 24.028 0 0 0-24-24zm0 32a8 8 0 1 1 8-8 8.009 8.009 0 0 1-8 8zM336 176a24 24 0 1 0 24 24 24.028 24.028 0 0 0-24-24zm0 32a8 8 0 1 1 8-8 8.009 8.009 0 0 1-8 8z" fill="#4a4a4a" opacity="1" data-original="#000000" class=""></path></g></svg>