<svg xmlns="http://www.w3.org/2000/svg" version="1.1" xmlns:xlink="http://www.w3.org/1999/xlink" width="512" height="512" x="0" y="0" viewBox="0 0 403.456 403.456" style="enable-background:new 0 0 512 512" xml:space="preserve" class=""><g><path d="M376.32 393.216H220.16V268.8h88.576c3.072 0 5.12-2.048 5.12-5.12v-84.992c0-3.072-2.048-5.12-5.12-5.12H220.16V135.68h89.088c1.536 0 2.56-.512 3.584-1.536l46.592-43.008c1.024-1.024 1.536-2.56 1.536-3.584s-.512-2.56-1.536-3.584L312.832 40.96c-1.024-1.024-2.048-1.536-3.584-1.536H220.16V19.456C220.16 8.704 211.456 0 200.704 0h-2.56c-10.752 0-19.456 8.704-19.456 19.456v19.456H95.744c-3.072 0-5.12 2.048-5.12 5.12v86.528c0 3.072 2.048 5.12 5.12 5.12H179.2v37.888H94.72c-1.024 0-2.56.512-3.584 1.536L44.544 217.6c-1.024 1.024-1.536 2.56-1.536 3.584s.512 2.56 1.536 3.584l46.592 42.496c1.024 1.024 2.048 1.536 3.584 1.536h83.968v124.416H27.136c-3.072 0-5.12 2.048-5.12 5.12s2.048 5.12 5.12 5.12H376.32c3.072 0 5.12-2.048 5.12-5.12s-2.56-5.12-5.12-5.12zM198.656 9.728h2.56a9.178 9.178 0 0 1 9.216 9.216v19.968h-20.48V18.944h-.512a9.178 9.178 0 0 1 9.216-9.216zm-97.792 115.2V49.152H307.2l40.96 37.888-40.96 37.888H100.864zM209.92 135.68v37.888h-20.48V135.68h20.48zM96.768 258.56l-40.96-37.376 40.96-37.376h206.336v74.752H96.768zM209.92 393.216h-20.48V268.8h20.48v124.416z" fill="#000000" opacity="1" data-original="#000000" class=""></path></g></svg>