<svg xmlns="http://www.w3.org/2000/svg" version="1.1" xmlns:xlink="http://www.w3.org/1999/xlink" width="512" height="512" x="0" y="0" viewBox="0 0 512 512" style="enable-background:new 0 0 512 512" xml:space="preserve" class=""><g><path d="M177.2 448.5C98.8 416.3 48.1 340.8 48.1 256c0-114.6 93.3-207.9 207.9-207.9h3.6l-21.3 18c-3.4 2.9-3.8 7.9-1 11.3 2.9 3.4 7.9 3.8 11.3 1l37.5-31.7c2-1.7 3-4.2 2.8-6.6.1-2.4-.8-4.9-2.8-6.6L248.7 1.9c-3.4-2.9-8.5-2.4-11.3 1-2.9 3.4-2.4 8.5 1 11.3L259.5 32c-2.8.5-89.8-6.5-161.9 65.6C20 175.3 11.4 295.1 71 382.3c24.9 36.4 59.5 64.4 100.2 81.1 4.1 1.7 8.8-.3 10.5-4.4 1.6-4.2-.3-8.9-4.5-10.5zm237.2-34.1c78-78 85.8-197.7 26.9-284.3C416.5 93.8 382 65.7 341.6 49c-4.1-1.7-8.8.3-10.5 4.3-1.7 4.1.3 8.8 4.4 10.5C413.5 96.1 464 171.5 464 256c0 114.6-93.3 207.9-207.9 207.9h-3.6l21.3-18c3.4-2.9 3.8-7.9 1-11.3-2.9-3.4-7.9-3.8-11.3-1L226 465.2c-3.9 3.3-3.9 9.9 0 13.2 38.5 31.6 37.4 33.5 42.7 33.5 7.5 0 10.9-9.4 5.2-14.2L252.5 480c2.8-.6 89.8 6.4 161.9-65.6z" fill="#000000" opacity="1" data-original="#000000" class=""></path></g></svg>