<svg xmlns="http://www.w3.org/2000/svg" version="1.1" xmlns:xlink="http://www.w3.org/1999/xlink" width="512" height="512" x="0" y="0" viewBox="0 0 512 512" style="enable-background:new 0 0 512 512" xml:space="preserve" class=""><g><path d="M336.055 40c-5.52 0-10 4.48-10 10s4.48 10 10 10 10-4.48 10-10-4.48-10-10-10zM176.055 40c-5.52 0-10 4.48-10 10s4.48 10 10 10 10-4.48 10-10-4.48-10-10-10z" fill="#000000" opacity="1" data-original="#000000" class=""></path><path d="m464.038 495.085-66.172-69.131c26.733-.958 48.189-22.991 48.189-49.954V79.27a70.196 70.196 0 0 0-15.903-44.428c-10.263-12.49-24.641-21.097-40.48-24.23A556.223 556.223 0 0 0 281.666 0h-52.83a544.369 544.369 0 0 0-106.512 10.544C89.719 17.067 66.055 45.938 66.055 79.19V376c0 27.19 21.82 49.365 48.867 49.971l-66.919 69.071A9.999 9.999 0 0 0 55.185 512h71.5a10 10 0 0 0 8.098-4.133L165.117 466h182.766l30.334 41.868a10.003 10.003 0 0 0 8.098 4.132h70.5a10 10 0 0 0 7.223-16.915zM86.055 376V79.19c0-23.753 16.903-44.375 40.19-49.035A524.486 524.486 0 0 1 228.835 20h52.83c34.873 0 69.901 3.441 104.118 10.229a50.112 50.112 0 0 1 28.912 17.306 50.141 50.141 0 0 1 11.359 31.734V376c0 16.542-13.458 30-30 30h-280c-16.541 0-29.999-13.458-29.999-30zm35.527 116H78.797l63.943-66h26.662l-47.82 66zm58.026-46 14.491-20h124.803l14.49 20H179.608zm211.81 46L343.6 426h26.625l63.175 66h-41.982z" fill="#000000" opacity="1" data-original="#000000" class=""></path><path d="M396.055 80h-280c-5.522 0-10 4.478-10 10v166c0 5.522 4.478 10 10 10h280c5.522 0 10-4.478 10-10V90c0-5.522-4.478-10-10-10zm-150 166h-120V100h120v146zm140 0h-120V100h120v146zM296.055 40h-80c-5.522 0-10 4.478-10 10s4.478 10 10 10h80c5.522 0 10-4.478 10-10s-4.478-10-10-10zM366.055 296c-22.056 0-40 17.944-40 40s17.944 40 40 40 40-17.944 40-40-17.944-40-40-40zm0 60c-11.028 0-20-8.972-20-20s8.972-20 20-20 20 8.972 20 20-8.972 20-20 20zM146.055 296c-22.056 0-40 17.944-40 40s17.945 40 40 40c22.056 0 40-17.944 40-40s-17.944-40-40-40zm0 60c-11.028 0-20-8.972-20-20s8.972-20 20-20 20 8.972 20 20-8.972 20-20 20zM296.055 306h-80c-5.522 0-10 4.478-10 10s4.478 10 10 10h80c5.522 0 10-4.478 10-10s-4.477-10-10-10zM296.055 346h-80c-5.522 0-10 4.478-10 10s4.478 10 10 10h80c5.522 0 10-4.478 10-10s-4.477-10-10-10z" fill="#000000" opacity="1" data-original="#000000" class=""></path></g></svg>