<svg id="Livello_1" data-name="Livello 1" xmlns="http://www.w3.org/2000/svg" width="512" height="512" viewBox="0 0 512 512">
    <path fill="#ffffff" d="M349.84,148.9h0a15.58,15.58,0,1,0,0-31.16h0a15.58,15.58,0,0,0-15.58,15.58h0A15.58,15.58,0,0,0,349.84,148.9Zm-4.28-15.59a4.27,4.27,0,0,1,4.27-4.27h0a4.27,4.27,0,0,1,4.27,4.27,4.22,4.22,0,0,1-1.23,3,4.3,4.3,0,0,1-3,1.27v0a4.27,4.27,0,0,1-4.27-4.26h0Z"/>
    <path fill="#ffffff" d="M153.9,237.79a8,8,0,1,0,0,16h37.42a8,8,0,0,0,8-8V164.87a8,8,0,0,0-7.93-8H153.93a8,8,0,0,0,0,16h29.42v24.51H153.9a8,8,0,1,0,0,16h29.45v24.49Z"/>
    <path fill="#ffffff" d="M229.18,356.15,216.84,349c.1-.3-13.39-7.81-13.65-7.92l-15-8.72A7.68,7.68,0,0,0,176.64,339v12.42c-58.35-6.75-95.7-19.48-117-29.14-28.15-12.8-44.3-27.63-44.3-40.7a23.68,23.68,0,0,1,5.84-14.31,71.44,71.44,0,0,1,17.11-14.85c15.73-10.31,38.34-19.66,65.37-27V209.56a332.39,332.39,0,0,0-42.74,14,180.87,180.87,0,0,0-32.69,17.08,80.2,80.2,0,0,0-20.9,19.55A37.08,37.08,0,0,0,0,281.58c0,12.09,6.77,23.83,20.12,34.87C33,327.12,51.47,336.71,75,344.94a446.7,446.7,0,0,0,81.37,19.2c6.64,1,13.44,1.87,20.29,2.65v19.79a7.67,7.67,0,0,0,11.52,6.64l41-23.78a7.93,7.93,0,0,0,2.79-2.79A7.69,7.69,0,0,0,229.18,356.15Z"/>
    <path fill="#ffffff" d="M504.84,260.45a78.74,78.74,0,0,0-20.35-19.32,176.34,176.34,0,0,0-31.88-16.93,325.89,325.89,0,0,0-41.73-14v15.87c26.29,7.36,48.25,16.62,63.49,26.77A69.53,69.53,0,0,1,491,267.49a23.42,23.42,0,0,1,5.67,14.08c0,13.08-16.14,27.91-44.3,40.71-22,10-61.35,23.32-123.38,29.85v15.36h0c9-.94,18-2.08,26.69-3.36A446.7,446.7,0,0,0,437,344.93c23.51-8.23,42-17.81,54.86-28.48,13.35-11,20.12-22.78,20.12-34.87A36.92,36.92,0,0,0,504.84,260.45Z"/>
    <path fill="#ffffff" d="M348.08,245.77V164.88a8,8,0,0,0-8-8H299.67a8,8,0,0,0-8,8v80.9a8,8,0,0,0,8,8h40.45A8,8,0,0,0,348.08,245.77Zm-15.95-8H307.65V172.84h24.48Z"/>
    <path fill="#ffffff" d="M267,172.86a8,8,0,0,0,0-16H226.53a8,8,0,0,0-8,8v80.9a8,8,0,0,0,8,8H267a8,8,0,0,0,8-8V205.29a8,8,0,0,0-8-8H234.5V172.86Zm-8,40.44v24.5H234.5V213.3Z"/>
</svg>