<svg xmlns="http://www.w3.org/2000/svg" width="69" height="8" viewBox="0 0 69 8">
    <path fill="#050033" fill-rule="evenodd" d="M68.926 6.587l-.117-.106c-.426.272-.68.272-1.622.282h-1.263l.117-2.79h1.194c.506 0 .612.01 1.01.058l.623-.737-.078-.08c-.486.158-.748.196-1.419.196H66.06l.039-2.566c.262 0 .535-.01.797-.01.379 0 .709.01 1.166.04l.602-.447-.049-.136c-.35.079-.68.147-1.72.147-.437 0-.777-.01-1.087-.029-.32-.01-.602-.03-.922-.06.087.409.136.65.174 1.234a34.724 34.724 0 0 1-.087 4.246c-.058.652-.087.924-.185 1.496.447-.058.786-.117 1.758-.117.398 0 .835 0 1.205.03.223.019.32.048.466.087l.709-.738zm-5.266 0l-.117-.106c-.427.272-.68.272-1.622.282h-1.263l.117-2.79h1.194c.506 0 .613.01 1.01.058l.623-.737-.078-.08c-.486.158-.748.196-1.419.196h-1.311l.039-2.566c.262 0 .534-.01.796-.01.38 0 .71.01 1.167.04l.602-.447-.049-.136c-.35.079-.68.147-1.72.147-.437 0-.777-.01-1.087-.029-.32-.01-.602-.03-.922-.06.087.409.136.65.174 1.234a34.724 34.724 0 0 1-.087 4.246c-.058.652-.087.924-.185 1.496.447-.058.786-.117 1.758-.117.399 0 .835 0 1.205.03.223.019.32.048.466.087l.71-.738zM52.984.67h.553c.02.535.039.933.039 1.535 0 .778-.03 1.856-.058 2.702a23.018 23.018 0 0 1-.155 2.38l1.096-.078c.02-.718.03-1.428.04-2.147.008-.865.008-1.72.028-2.575.03-.972.068-1.303.137-1.836.427 0 1 0 1.486.486.38.389.516.932.516 1.457 0 .281-.272.69-.516.942-.466.496-1.03.613-1.506.72.476.514.807.874 1.925 1.895.505.456 1.019.893 1.553 1.32l.894-.62c-1.079-.72-1.622-1.206-3.206-2.712.39-.185.652-.311 1.089-.768.718-.748.844-1.312.844-1.662 0-.272-.077-.494-.31-.738-.66-.679-1.807-.679-2.157-.679-.36 0-.71.02-1.06.039-.417.03-.824.049-1.232.079v.26zm-6.268.01c.36.079.603.136 1.157.136.534 0 .816 0 1.38.03.01.727.019 1.447.019 2.165.01.35-.01 1.915-.01 2.235 0 1.099 0 1.225-.048 2.022.465-.01.611 0 1.087.038-.03-.66-.039-1.059-.039-1.554 0-.35.02-1.905.02-2.226 0-1.36 0-1.505.019-2.642 1.136.02 1.37.01 2.079-.067l.379-.573-.029-.029c-.622.175-1.623.195-2.973.195-.563 0-1.156 0-1.777-.05a4.895 4.895 0 0 1-.943-.136l-.32.456zm-9.522 6.51c0-1.02.039-2.08.088-3.118.019-.739.038-1.07.038-1.526 0-.272-.01-.553-.01-.836.214.321.224.331 1.118 1.224.943.963 1.895 1.904 2.848 2.857 1.02.99 1.02 1 1.555 1.574.329-.224.455-.31.795-.515a1.058 1.058 0 0 1-.136-.418c-.068-.495-.078-1.719-.078-2.098 0-.651.02-1.302.039-1.943.029-.923.039-1.069.048-2.118a8.328 8.328 0 0 1-.883.224c.05.923.06 1.244.06 2.972v.903c0 .72.008.904.067 1.487-.603-.632-.69-.719-1.467-1.477a129.643 129.643 0 0 1-2.284-2.254C38.039 1.156 37.708.69 37.397.253a5.743 5.743 0 0 1-.97.117c.078.68.107 1.447.107 2.205 0 .883-.136 4.04-.155 4.4-.01.155-.029.311-.04.466l.855-.252zM31.831 1.38c.31.738.427 1.029.942 2.146-.252.088-.417.137-1.03.137-.281 0-.64 0-.922-.02-.185-.01-.263-.018-.263-.117 0-.048.098-.222.136-.3a20.11 20.11 0 0 1 1.137-1.846zm-3.497 5.906c.243-.486.301-.611 1.01-1.798.156-.272.32-.544.486-.825.388-.67.408-.67.787-.68h1.282c.282 0 .448-.01.593-.03.145-.02.262-.058.427-.107.35.72.942 1.856 1.302 2.584.301.613.311.652.378.914.467-.155.583-.184 1.04-.243-.301-.68-.418-.904-1.457-2.953-1.137-2.254-1.68-3.506-1.7-3.574A.77.77 0 0 1 32.414.3a8.18 8.18 0 0 1-.845.078c-.457 1.126-1.117 2.156-1.778 3.177-.282.436-.554.864-.846 1.292-.232.33-.465.66-.69 1-.426.624-.591.905-.874 1.399l.953.04zm-2.49-3.137c.62-.593 1.155-1.108 2.292-2.546.447-.573.67-.894.942-1.302L29.06.253c-.38.038-.477.038-.826.058-.136.32-.214.515-.651 1.127-.36.496-.69.913-1.166 1.437-.34.36-.476.467-.797.729-.476-.486-.65-.67-1.68-1.933C23.396 1 23.23.768 22.697 0a5.614 5.614 0 0 1-1.108.417c.301.457.33.486.825 1.06.205.242 1.07 1.302 1.244 1.515.486.573.73.826 1.176 1.283v.97c-.01.36-.02.71-.02 1.06v1.03c.477-.03.583-.039 1.078-.059-.039-.573-.039-.748-.049-1.33V4.148zm-11.126 3.04c0-1.02.039-2.08.088-3.118.02-.739.04-1.07.04-1.526 0-.272-.01-.553-.01-.836.212.321.223.331 1.117 1.224.943.963 1.894 1.904 2.847 2.857 1.02.99 1.02 1 1.555 1.574.33-.224.456-.31.796-.515a1.06 1.06 0 0 1-.137-.418c-.068-.495-.077-1.719-.077-2.098 0-.651.02-1.302.038-1.943.03-.923.04-1.069.05-2.118a8.38 8.38 0 0 1-.884.224c.048.923.058 1.244.058 2.972v.903c0 .72.01.904.068 1.487-.602-.632-.69-.719-1.467-1.477a132.608 132.608 0 0 1-2.284-2.254C15.564 1.156 15.233.69 14.922.253a5.752 5.752 0 0 1-.97.117c.078.68.107 1.447.107 2.205 0 .883-.136 4.04-.155 4.4-.01.155-.03.311-.04.466l.854-.252zM9.356 1.38c.31.738.427 1.029.942 2.146-.253.088-.417.137-1.03.137-.281 0-.64 0-.923-.02-.184-.01-.262-.018-.262-.117 0-.048.098-.222.136-.3.35-.632.72-1.254 1.137-1.846zM5.859 7.286c.243-.486.3-.611 1.01-1.798.156-.272.32-.544.486-.825.388-.67.408-.67.787-.68h1.282c.282 0 .447-.01.593-.03.145-.02.262-.058.427-.107.35.72.942 1.856 1.302 2.584.301.613.31.652.378.914.467-.155.583-.184 1.04-.243-.301-.68-.418-.904-1.457-2.953-1.137-2.254-1.68-3.506-1.7-3.574A.753.753 0 0 1 9.939.3a8.18 8.18 0 0 1-.845.078c-.457 1.126-1.118 2.156-1.779 3.177-.281.436-.553.864-.845 1.292-.232.33-.466.66-.69 1-.427.624-.591.905-.874 1.399l.953.04zM1.669.718c.409-.01.934-.02 1.343.398.224.224.437.651.437 1.01 0 .806-.962 1.38-1.321 1.565-.079.04-.205.107-.205.222 0 .108.097.147.155.167.108.038.214.068.32.106.885.342 1.197 1.051 1.197 1.459 0 .36-.194.66-.574.874-.457.262-1.001.312-1.429.35.029-3.441.04-4.227.078-6.15zM.04.7L.651.69.612 6.955 0 6.965v.303c1.524-.02 2.681-.03 3.711-.653.534-.31.874-.71.874-1.214 0-.514-.36-1.088-.951-1.495-.263-.176-.515-.282-.749-.389.69-.322 1.554-.807 1.554-1.682 0-.738-.582-1.145-.844-1.282C3.283.408 2.963.359 2.097.359 1.253.36.757.39.02.427L.04.7z"/>
</svg>
