<svg xmlns="http://www.w3.org/2000/svg" width="18" height="18" viewBox="0 0 18 18">
    <g fill="#323A46" fill-opacity=".6" fill-rule="nonzero">
        <path d="M13.5 6a.45.45 0 0 0 .354-.191.766.766 0 0 0 .146-.462V.653c0-.36-.224-.653-.5-.653s-.5.292-.5.653v4.694c0 .36.224.653.5.653zM6 2h6v1H6z"/>
        <path d="M15.912 2H15v1.212h.912c.49 0 .887.401.888.896V6.69H1.2V4.108c0-.495.398-.896.888-.896H3V2h-.912A2.1 2.1 0 0 0 0 4.108v11.784A2.1 2.1 0 0 0 2.088 18h13.824A2.1 2.1 0 0 0 18 15.892V4.108A2.1 2.1 0 0 0 15.912 2zm0 14.788H2.088a.893.893 0 0 1-.888-.896v-7.99h15.6v7.99a.893.893 0 0 1-.888.896z"/>
        <path d="M4.5 6a.45.45 0 0 0 .354-.191A.766.766 0 0 0 5 5.347V.653C5 .293 4.776 0 4.5 0S4 .292 4 .653v4.694c0 .36.224.653.5.653z"/>
    </g>
</svg>
