<svg xmlns="http://www.w3.org/2000/svg" width="24" height="24" viewBox="0 0 24 24">
    <path fill="#323A46" fill-rule="nonzero" d="M13.87 12.008l9.75-9.753c.507-.506.507-1.332 0-1.865-.506-.533-1.332-.507-1.864 0l-9.751 9.753L2.255.39C1.748-.117.922-.117.39.39c-.533.506-.506 1.332 0 1.865l9.75 9.753-9.75 9.754c-.506.506-.506 1.332 0 1.865.266.266.586.373.932.373.346 0 .666-.133.933-.373l9.75-9.753 9.75 9.753c.267.266.587.373.933.373.346 0 .666-.133.932-.373.507-.506.507-1.332 0-1.865l-9.75-9.754z"/>
</svg>
