<?xml version="1.0" encoding="utf-8"?>
<!-- Generator: Adobe Illustrator 23.1.0, SVG Export Plug-In . SVG Version: 6.00 Build 0)  -->
<svg version="1.1" id="Calque_1" xmlns="http://www.w3.org/2000/svg" xmlns:xlink="http://www.w3.org/1999/xlink" x="0px" y="0px"
	 viewBox="0 0 290 159" style="enable-background:new 0 0 290 159;" xml:space="preserve">
<style type="text/css">
	.st0{fill-rule:evenodd;clip-rule:evenodd;fill:#D5CCB8;}
	.st1{fill:none;stroke:#D5CCB8;stroke-width:0.75;stroke-linecap:round;stroke-linejoin:round;stroke-dasharray:0,1.051;}
	.st2{fill:none;stroke:#D5CCB8;stroke-width:0.75;}
</style>
<g>
	<path class="st0" d="M145.6,120h-1.1c-2.9,13-7.2,17.5-19.7,18.8v1.2c12.5,1.4,16.8,5.9,19.7,19h1.1c2.9-13,7.2-17.5,19.7-18.8V139
		C152.8,137.5,148.5,133,145.6,120"/>
	<g>
		<path class="st1" d="M187.8,139.4h96.6"/>
		<path class="st2" d="M285.3,139.4c0,1,0.8,1.8,1.8,1.8c1,0,1.8-0.8,1.8-1.8s-0.8-1.8-1.8-1.8C286.2,137.6,285.3,138.4,285.3,139.4
			z"/>
	</g>
	<g>
		<path class="st1" d="M102.4,139.4H5.7"/>
		<path class="st2" d="M4.8,139.4c0-1-0.8-1.8-1.8-1.8s-1.8,0.8-1.8,1.8c0,1,0.8,1.8,1.8,1.8S4.8,140.5,4.8,139.4z"/>
	</g>
	<g>
		<path class="st1" d="M145,103.7V7.2"/>
		<path class="st2" d="M145,5.6c1,0,1.8-0.8,1.8-1.8S146,2,145,2c-1,0-1.8,0.8-1.8,1.8S144,5.6,145,5.6z"/>
	</g>
</g>
</svg>
