<svg xmlns="http://www.w3.org/2000/svg" xmlns:xlink="http://www.w3.org/1999/xlink" width="68" height="12" viewBox="0 0 68 12">
    <defs>
        <path id="a" d="M0 .225h8.777v11.11H0z"/>
    </defs>
    <g fill="none" fill-rule="evenodd">
        <g transform="translate(0 .3)">
            <mask id="b" fill="#fff">
                <use xlink:href="#a"/>
            </mask>
            <path fill="#050033" d="M0 .225H3.64c3.97 0 5.136 2.723 5.136 5.54 0 3.144-1.603 5.57-5.167 5.57H0V.225zm.684 10.52h2.989c2.069 0 4.419-1.138 4.419-4.98 0-4.544-2.91-4.949-4.56-4.949H.685v9.93z" mask="url(#b)"/>
        </g>
        <path fill="#050033" d="M20.09 11.044v.591h-7.548V.525h7.47v.59h-6.785v4.45h6.38v.593h-6.38v4.886zM23.42.525h.684v10.52h6.302v.59H23.42zM37.408.525l4.389 11.11h-.731l-1.4-3.564h-5.324l-1.416 3.563h-.73L36.661.524h.746zm2.039 6.955l-2.38-6.287h-.032L34.56 7.48h4.887zM44.753.525h.856l7.018 10.192h.03V.525h.686v11.11h-.81L45.47 1.364h-.032v10.27h-.684zM62.26 11.9c-3.331 0-5.292-2.567-5.292-5.82S58.928.26 62.26.26c3.315 0 5.276 2.567 5.276 5.82s-1.96 5.82-5.276 5.82m0-.592c2.894 0 4.592-2.38 4.592-5.229 0-2.847-1.698-5.229-4.592-5.229-2.91 0-4.606 2.382-4.606 5.23 0 2.848 1.696 5.228 4.606 5.228"/>
    </g>
</svg>
