<svg xmlns="http://www.w3.org/2000/svg" width="64" height="20" viewBox="0 0 64 20">
    <g fill="#050033" fill-rule="evenodd">
        <path d="M18.82 4.21c-.041 0-.16.066-.368.21-1.12.777-2.782 3.08-3.846 4.82-2.527 0-3.277.752-3.277 1.485-.017.45.299.83.622.83 0-1.84 1.975-1.906 2.407-1.906-.737 1.588-4.397 7.358-6.808 8.416-.458.15-.55.345-.343.345a.58.58 0 0 0 .1-.01c.738-.164 1.953-.778 3.156-1.761 1.31-1.122 2.567-2.607 3.716-4.436 1.174-2.015 2.13-4.032 3.039-5.513.56-.942 1.08-1.697 1.436-2.19.155-.185.222-.29.167-.29"/>
        <path d="M13.695 0C9.877 0 7.452 2.434 7.452 5.014c0 2.133 1.82 3.554 3.847 3.554 3.001 0 3.447-2.146 3.438-2.41 0-.144-.058-.432-.182-.531a.153.153 0 0 0-.092-.03c-.043 0-.08.02-.077.069 0 .82-1.56 2.483-3.48 2.492h-.019C6.49 8.158 8.3.37 13.174.37c2.673 0 5.495 1.779 7.54 2.68-1.298 1.405-2.685 3.296-4.694 7.292-2.749 5.468-6.35 8.828-10.352 8.828-2.212 0-4.46-1.43-4.46-4.91 0-3.32 2.481-5.28 4.647-5.28 1.677 0 3.165 1.178 3.165 3.81 0 2.479-1.71 3.775-3.13 3.788-1.609 0-1.957-.99-1.955-1.945 0-1.971.977-2.366.497-2.366-1.755 0-2.166 4.65 1.683 4.65 2.46 0 3.952-2.171 3.977-4.288.025-2.01-1.272-3.97-4.316-3.97-3.798 0-5.784 2.76-5.776 5.492.007 2.687 1.935 5.348 5.958 5.348 3.232 0 5.306-1.374 7.108-3.054 1.98-1.844 3.206-4.272 4.24-6.635.276.045.752.117 1.087.117.11 0 .206-.008.273-.028-.19.296-.702 1.298-.464 1.298h.014c.193-.027.408-.664 1.08-1.381.245-.262.655-.516 1.088-.704.824-.36.565-.96.13-.96-.85 0-1.235 1.335-2.208 1.335a4.052 4.052 0 0 1-.818-.104c.638-1.56 2.236-4.788 3.68-6.085.634.27 2.712 1.297 4.238 1.297 3.602 0 4.086-3.637-.008-3.637h-.02c-1.475 0-2.879.55-4.055 1.51-1.477-.631-4.435-2.47-7.628-2.47m11.912 3.94c-1.45 0-2.922-.836-3.804-1.224.961-.821 2.265-1.437 3.535-1.441 3.027 0 3.155 2.666.27 2.666"/>
        <path d="M61.07 7.914c-.95 0-2.092 1.928-2.092 1.928l-12.63.032.59.577s10.509-.231 11.794-.25c-.414.626-.962 1.407-1.41 2.046-1.261 1.797-2.34 3.16-3.506 3.946-.346.234-.615.343-.791.343-.285 0-.325-.29-.06-.81.439-.867 1.535-2.083 1.535-3.034 0-.42-.138-.947-.863-.947-1.143 0-2.292 1.223-2.461 1.367l.895-1.338h-1.314c-.084.126-.172.268-.271.409-.394.568-1.337 1.384-2.118 1.384-.42 0-.793-.233-1.008-.866-.156-.567-.56-1.106-1.24-1.106-1.2 0-2.131.667-2.913 1.674-.058.072-2.235 3.258-3.441 3.258-.496 0-.08-.616.155-.998.853-1.381 1.469-2.213 1.463-2.927-.007-.538-.282-.86-.965-.86-1.13 0-2.08 1.07-2.255 1.302h-.01s.589-1.301-.74-1.301c-.536 0-1.372.269-2.406 1.298l-.002-.001.874-1.268-1.344.002-.523.795c-.361.528-.991.648-1.284.708.579-.393.687-1.612-.471-1.612-.556 0-1.572.545-2.543 1.487l-.01-.012.926-1.37h-1.304s-.28.42-.691 1.049c-1.068 1.64-3.174 3.747-4.091 3.747-.453 0-.521-.648.166-1.603.865-1.322 2.106-3.192 2.106-3.192H25.5s-.556.815-1.201 1.792c-.87 1.326-1.95 3.004-3.048 3.004-.666 0-.35-1.023.128-1.757.68-1.043 2.006-3.027 2.006-3.027H22.07s-.434.647-.646.968c0-.684-.403-1.008-1.216-1.008-3.095 0-5.065 5.187-2.398 5.187h.017c1.173 0 2.13-1.291 2.282-1.562h.03c-.07.7.264 1.553 1.12 1.553 1.119 0 2.31-1.702 2.31-1.702-.147.773.102 1.709.96 1.709 1.005 0 2.635-1.832 2.726-1.916l.005.002c-.68 1.02-1.273 1.884-1.273 1.884h1.305s.28-.425.694-1.044c1.574-2.352 3.18-3.87 4.337-3.918v.004c-.228.057-.71.35-.71.904 0 .538.36.725.744.725h.005c.474 0 1.04-.231 1.18-.287l-2.403 3.616h1.312s.909-1.37 1.357-2.035c1.173-1.578 2.595-2.833 3.414-2.833.532 0 .064.672-.124.954-.21.32-2.6 3.916-2.6 3.916h1.317c.706-1.04.687-1.051 1.019-1.55.788-1.182 1.158-1.832 2.154-2.685.486-.386.918-.616 1.285-.616.173 0 .219.164.219.269 0 .733-1.953 2.432-1.953 3.533 0 .692.482 1.077 1.006 1.077.962 0 1.962-.921 2.954-2.192-.345 1.019-.013 2.34 1.298 2.34 1.533 0 3.435-2.242 3.555-3.616.236.286.57.399.926.399.537 0 1.119-.258 1.472-.567l-2.398 3.61h1.314s.844-1.265 1.727-2.445c.453-.606 1.045-1.35 2.106-2.016.354-.223.65-.387.835-.387 1.182 0-1.761 2.407-1.761 3.949 0 .535.386.96 1.075.96 1.333 0 2.629-1.695 2.965-2.063l.008.003c-1.081 1.517-2.4 3.638.146 3.638.293 0 .745-.074.958-.294.246-.258.107-.302-.068-.302-.093 0-.194.013-.255.013-1.077 0-1.13-.68-.503-1.796a98.849 98.849 0 0 1 1.669-2.738c1.036-1.576 2.205-3.244 2.205-3.244l3.408-.107v-.246l-3.176.008s.72-1.086 1.148-1.728c.069-.101.102-.193-.083-.193M43.58 16.643a.36.36 0 0 1-.214-.063c-.43-.292-.06-1.562.754-2.77.7-1.044 1.575-1.795 2.075-1.795.082 0 .15.019.21.06.428.29.078 1.579-.736 2.789-.702 1.039-1.585 1.779-2.09 1.779m-25.701-.102c-1.572 0 1.302-4.396 2.619-4.396 1.65 0-1.176 4.396-2.62 4.396m9.255-7.087a.705.705 0 1 0 .003 1.409.705.705 0 0 0-.003-1.41"/>
    </g>
</svg>
