<svg xmlns="http://www.w3.org/2000/svg" width="24" height="24" viewBox="0 0 24 24">
    <g fill="#fff" fill-rule="nonzero">
        <path d="M16.215 2.182H1.24C.555 2.182 0 1.694 0 1.09S.555 0 1.24 0h14.975c.685 0 1.24.488 1.24 1.09 0 .604-.555 1.092-1.24 1.092zM22.756 13.09H1.244C.557 13.09 0 12.604 0 12c0-.603.557-1.09 1.244-1.09h21.512c.687 0 1.244.487 1.244 1.09 0 .603-.557 1.09-1.244 1.09zM16.215 24H1.24C.555 24 0 23.512 0 22.91c0-.604.555-1.092 1.24-1.092h14.975c.685 0 1.24.488 1.24 1.091S16.9 24 16.215 24z"/>
    </g>
</svg>
