<?xml version="1.0" encoding="UTF-8"?>
<svg id="Livello_1" data-name="Livello 1" xmlns="http://www.w3.org/2000/svg" viewBox="0 0 215.75 58.89">
  <g>
    <path d="M107.97,28.12c1.59.23,2.15.85,2.15,2.98v9.81c0,2.13-.56,2.75-2.15,2.98v.21h5.84v-16.19h-5.84v.21Z" style="fill: #FFF;"/>
    <path d="M118.59,39.56h.19v-7.11h-.19c-.51,2.38-1.26,3.2-3.45,3.44h0v.21c2.19.26,2.94,1.09,3.45,3.46Z" style="fill: #FFF;"/>
    <path d="M115.15,28.11c.9.04,1.79.25,2.62.61,1.79.83,3.12,2.41,3.62,4.31h0s.22,0,.22,0v-5.13h-6.46v.2Z" style="fill: #FFF;"/>
    <path d="M117.77,43.28c-.83.36-1.72.57-2.62.61v.2h6.46v-5.13h-.22c-.5,1.91-1.83,3.49-3.62,4.31Z" style="fill: #FFF;"/>
    <path d="M105.96,34.52c-.82,0-1.49.66-1.49,1.48,0,.82.66,1.49,1.48,1.49s1.49-.66,1.49-1.48c0,0,0,0,0,0,0-.82-.66-1.48-1.48-1.48Z" style="fill: #FFF;"/>
    <path d="M89.35,35.37c.21-4.11,1.03-6.11,2.59-6.98.43-.26.9-.43,1.39-.53v-.16c-3.77.18-7.45,2.78-7.7,7.76-.24,4.53,2.13,8.35,7.7,8.82h0v-.15c-.53-.12-1.04-.32-1.51-.59-2.17-1.24-2.67-4.3-2.47-8.17Z" style="fill: #FFF;"/>
    <path d="M94.67,27.74v.17c.47.13.91.31,1.33.56,2.17,1.24,2.67,4.3,2.47,8.17h0c-.22,4.1-1.06,6.11-2.62,6.98-.36.23-.76.4-1.18.49v.18c3.7-.25,7.27-2.85,7.52-7.75.24-4.48-2.09-8.27-7.52-8.8Z" style="fill: #FFF;"/>
    <path d="M97.46,36.12v-.21c-2.19-.26-2.94-1.08-3.45-3.46h-.2c-.51,2.38-1.26,3.2-3.45,3.44v.21c2.19.26,2.94,1.09,3.45,3.46h.2c.51-2.38,1.26-3.2,3.45-3.44Z" style="fill: #FFF;"/>
    <path d="M53.54,34.73c0-1.51-1.07-2.29-2.72-2.29h-2.79v7.11h1.51v-2.38h0s1.13,0,1.13,0l1.47,2.38h1.67l-1.63-2.6c.85-.41,1.38-1.28,1.35-2.23ZM50.65,35.9h-1.1v-2.19s1.1,0,1.1,0c.88,0,1.33.34,1.33,1.04s-.45,1.16-1.33,1.16Z" style="fill: #FFF;"/>
    <rect x="55.44" y="32.45" width="1.52" height="7.11" style="fill: #FFF;"/>
    <polygon points="60.43 36.53 63.53 36.53 63.53 35.27 60.43 35.27 60.43 33.71 63.77 33.71 63.77 32.45 58.93 32.45 58.93 39.56 63.82 39.56 63.82 38.3 60.43 38.3 60.43 36.53" style="fill: #FFF;"/>
    <path d="M70.08,37.12h-.03c-.7-1.14-2.88-4.67-2.88-4.67h-1.58v7.11h1.44v-4.67h.03c.75,1.21,2.88,4.67,2.88,4.67h1.58v-7.11h-1.44v4.67Z" style="fill: #FFF;"/>
    <polygon points="73.08 33.72 75.13 33.72 75.13 39.56 76.66 39.56 76.66 33.72 78.7 33.72 78.7 32.45 73.08 32.45 73.08 33.72" style="fill: #FFF;"/>
    <path d="M43.05,32.32c-2.08,0-3.46,1.39-3.46,3.7s1.38,3.7,3.46,3.7,3.46-1.39,3.46-3.7-1.38-3.7-3.46-3.7ZM43.05,38.45c-1.28,0-1.89-.99-1.89-2.44s.61-2.44,1.89-2.44,1.89,1,1.89,2.44-.61,2.44-1.89,2.44Z" style="fill: #FFF;"/>
    <path d="M153.58,36.96c.85-.41,1.38-1.28,1.35-2.23,0-1.51-1.07-2.29-2.72-2.29h-2.79v7.11h1.51v-2.38h1.14l1.47,2.38h1.67l-1.63-2.6h0ZM152.04,35.9h0s-1.1,0-1.1,0v-2.19h1.1c.88,0,1.33.35,1.33,1.04s-.45,1.16-1.33,1.16Z" style="fill: #FFF;"/>
    <path d="M145.39,32.45h-2.7v7.11h1.51v-2.4h1.19c1.64,0,2.81-.83,2.81-2.45s-1.12-2.27-2.81-2.27ZM145.24,35.9h-1.03v-2.19h1.03c.94,0,1.41.24,1.41,1.01s-.47,1.19-1.41,1.19Z" style="fill: #FFF;"/>
    <polygon points="158.25 38.3 158.25 36.53 161.35 36.53 161.35 35.27 158.25 35.27 158.25 33.71 161.58 33.71 161.58 32.45 156.75 32.45 156.75 39.56 161.63 39.56 161.63 38.3 158.25 38.3" style="fill: #FFF;"/>
    <path d="M166.44,35.31c-1.15-.19-1.65-.39-1.65-1,0-.48.38-.78,1.14-.78.65-.06,1.24.41,1.32,1.06l1.54-.34c-.24-1.25-1.35-1.95-2.82-1.95-1.57,0-2.72.71-2.72,2.13s1.12,1.92,2.6,2.15c1.1.17,1.49.43,1.49.95,0,.65-.59.92-1.31.92h0c-.7.08-1.33-.42-1.41-1.11,0-.02,0-.04,0-.07l-1.52.24c.06,1.15,1.15,2.16,2.94,2.16,1.65,0,2.86-.86,2.86-2.23,0-1.28-.77-1.87-2.45-2.15Z" style="fill: #FFF;"/>
    <path d="M173.7,35.32h0c-1.16-.2-1.65-.39-1.65-1,0-.48.37-.78,1.14-.78.65-.06,1.24.41,1.32,1.06l1.54-.34c-.24-1.25-1.35-1.95-2.82-1.95-1.57,0-2.72.71-2.72,2.13s1.12,1.92,2.6,2.15c1.1.17,1.49.43,1.49.95,0,.65-.59.92-1.31.92-.7.08-1.33-.42-1.41-1.12,0-.02,0-.04,0-.06l-1.52.24c.06,1.15,1.15,2.16,2.94,2.16,1.65,0,2.86-.86,2.86-2.23,0-1.28-.77-1.87-2.45-2.15Z" style="fill: #FFF;"/>
    <polygon points="138.91 35.83 141.14 32.47 141.15 32.45 139.34 32.45 138.03 34.57 136.77 32.45 134.83 32.45 134.85 32.47 137.06 35.9 134.73 39.54 134.71 39.56 136.43 39.56 137.95 37.16 139.43 39.56 141.36 39.56 141.34 39.53 138.91 35.83" style="fill: #FFF;"/>
    <polygon points="130.02 38.3 130.02 36.53 133.12 36.53 133.12 35.27 130.02 35.27 130.02 33.71 133.35 33.71 133.35 32.45 128.52 32.45 128.52 39.56 133.4 39.56 133.4 38.3 130.02 38.3" style="fill: #FFF;"/>
  </g>
  <g>
    <polygon points="92.25 52.94 94.5 52.94 94.5 58.88 95.82 58.88 95.82 52.94 98.08 52.94 98.08 51.9 92.25 51.9 92.25 52.94" style="fill: #FFF;"/>
    <rect x="88" y="51.9" width="1.32" height="6.98" style="fill: #FFF;"/>
    <path d="M102.19,51.86h0l-2.47,7.02h1.34l.44-1.33h2.93l.43,1.33h1.43l-2.46-7.02h-1.64ZM101.85,56.52l1.1-3.34h.04l1.09,3.34h-2.24Z" style="fill: #FFF;"/>
    <polygon points="119.57 51.9 118.67 53.5 117.85 55.03 117.81 55.03 116.97 53.5 116.05 51.9 114.65 51.9 117.15 56.2 117.15 58.88 118.47 58.88 118.47 56.18 120.94 51.9 119.57 51.9" style="fill: #FFF;"/>
    <polygon points="110.34 51.9 109.02 51.9 109.02 58.88 113.38 58.88 113.38 57.84 110.34 57.84 110.34 51.9" style="fill: #FFF;"/>
    <polygon points="109.02 51.9 109.02 51.9 109.02 51.9 109.02 51.9" style="fill: #FFF;"/>
  </g>
  <g>
    <path d="M55.23.33h-9v.68h2.37v14.56h0c0,2.64-.57,3.48-2.44,3.64v.57h8.54c6.33,0,9.77-3.97,9.77-10.32,0-5.68-3.27-9.13-9.23-9.13ZM54.64,19.02h-2.91s-.03-17.95-.03-17.95h3.11c4.14,0,6.35,3.23,6.35,9.18s-2.03,8.77-6.53,8.77Z" style="fill: #FFF;"/>
    <path d="M32.18,11.85h2.67v-.76h-2.96l-3.53-9.32c-.24-.89-1.06-1.49-1.98-1.44h-2.5v.6c.62.16,1.06.63,1.42,1.41l-6.12,16.68h-2.32,0v.76h6.3v-.65c-2.26-.11-2.62-1.5-1.39-4.89l.87-2.39h6.23l2.65,7.17h-3.32v.76h8.95v-.76h-2.29l-2.7-7.17ZM22.94,11.09l2.83-7.69,2.83,7.69h-5.66Z" style="fill: #FFF;"/>
    <path d="M76.63,0c-5.5,0-9.21,4.18-9.21,10.54h0c0,5.92,3.16,9.59,8.69,9.59s9.16-4.21,9.16-10.7C85.27,3.64,82.13,0,76.63,0ZM76.35,19.31c-3.45,0-5.66-3.67-5.66-9.56s2.01-8.96,5.71-8.96c3.4,0,5.61,3.5,5.61,9.45s-1.98,9.07-5.66,9.07Z" style="fill: #FFF;"/>
    <path d="M9.21,19.04h-3.65V1.01h3.7V.33H.08v.68h2.33v14.69h0c0,2.47-.57,3.34-2.42,3.51v.57h14.92l.59-5.13-.44-.08c-1.31,3.48-2.65,4.48-5.87,4.48Z" style="fill: #FFF;"/>
    <path d="M191.43,1.02c2.62,0,3.88,1.17,5.09,4.37l.44-.06-.21-5.02h-16.08l-.18,5.02.44.06c1.18-3.15,2.57-4.37,5.09-4.37h1.13v14.53c0,2.58-.67,3.48-2.6,3.64v.57h8.33v-.68h-2.6V1.02h1.13Z" style="fill: #FFF;"/>
    <path d="M176.45,4.39c0-2.5.54-3.34,2.42-3.5V.32h-7.95v.68h2.39v14.69h0c0,2.5-.59,3.34-2.47,3.5v.57h8.08v-.68h-2.47V4.39Z" style="fill: #FFF;"/>
    <path d="M213.46,19.01l-2.7-7.17h2.68v-.76h-2.96l-3.53-9.32c-.24-.89-1.06-1.49-1.98-1.44h-2.5v.6c.62.16,1.06.63,1.42,1.41l-6.12,16.68h-2.32,0v.76h6.3v-.65c-2.26-.11-2.62-1.5-1.39-4.89l.87-2.39h6.22l2.65,7.17h-3.32v.76h8.95v-.76h-2.29ZM201.52,11.07l2.83-7.69,2.83,7.69h-5.66Z" style="fill: #FFF;"/>
    <path d="M163.62.89c2.08.14,2.52,1.52,1.34,4.73l-3.83,10.08-5.45-14.69h3.27V.32h-8.93v.68h2.16l7.28,18.77h.85l7.18-18.77h2.11V.32h-5.97v.57Z" style="fill: #FFF;"/>
    <path d="M96.74,19.04h-3.65V1.01h3.7V.33h-9.18v.68h2.34v14.69h0c0,2.47-.57,3.34-2.42,3.51v.57h14.92l.59-5.13-.44-.08c-1.31,3.48-2.65,4.48-5.87,4.48Z" style="fill: #FFF;"/>
    <path d="M114.88,19.34c-3.6,0-5.79-3.53-5.79-9.48s2.06-9.07,5.89-9.07c2.42,0,4.22,1.3,5.79,4.24l.44-.06-.1-3.88C119.23.35,117.23-.02,115.21,0c-5.68,0-9.39,4.27-9.39,10.62h0c0,5.87,3.29,9.51,8.69,9.51,2.38,0,4.72-.64,6.79-1.82l.49-4.07-.41-.08c-2.01,3.58-4.01,5.19-6.51,5.19Z" style="fill: #FFF;"/>
    <path d="M134.62,19.04h-4.58v-9.02h4.97v2.47h.67v-5.79h-.49c-.54,1.77-1.55,2.61-3.47,2.61h-1.67V1.06h4.12c2.78,0,3.88.79,5.07,3.5l.44-.06-.15-4.18h-14.97v.68h2.36v14.69h0c0,2.51-.57,3.35-2.44,3.51v.57h15.67l.57-4.48-.44-.06c-1.57,2.93-2.81,3.8-5.63,3.8Z" style="fill: #FFF;"/>
  </g>
</svg>