<?xml version="1.0"?>
<svg xmlns="http://www.w3.org/2000/svg" xmlns:xlink="http://www.w3.org/1999/xlink" xmlns:svgjs="http://svgjs.com/svgjs" version="1.1" width="512" height="512" x="0" y="0" viewBox="0 0 480 480" style="enable-background:new 0 0 512 512" xml:space="preserve" class=""><g><path xmlns="http://www.w3.org/2000/svg" d="m240 0c-132.546875 0-240 107.453125-240 240s107.453125 240 240 240 240-107.453125 240-240c-.148438-132.484375-107.515625-239.851562-240-240zm0 464c-123.710938 0-224-100.289062-224-224s100.289062-224 224-224 224 100.289062 224 224c-.140625 123.652344-100.347656 223.859375-224 224zm0 0" fill="#ffffff" data-original="#000000" style=""/><path xmlns="http://www.w3.org/2000/svg" d="m346.34375 162.34375-34.34375 34.34375v-76.6875c.003906-2.859375-1.515625-5.507812-3.992188-6.941406-2.476562-1.429688-5.53125-1.433594-8.007812-.003906l-110.128906 62.945312h-61.871094c-4.417969 0-8 3.582031-8 8v112c0 4.417969 3.582031 8 8 8h61.871094l9.433594 5.382812-44.960938 44.960938c-2.078125 2.007812-2.914062 4.984375-2.179688 7.78125.730469 2.796875 2.914063 4.980469 5.710938 5.710938 2.796875.734374 5.773438-.101563 7.78125-2.179688l48-48.039062 86.34375 49.328124c2.476562 1.429688 5.53125 1.425782 8.007812-.003906 2.476563-1.433594 3.996094-4.082031 3.992188-6.941406v-140.6875l45.65625-45.65625c3.03125-3.140625 2.988281-8.128906-.097656-11.214844-3.085938-3.085937-8.074219-3.128906-11.214844-.097656zm-150.34375 126.710938c-1.21875-.695313-2.597656-1.058594-4-1.054688h-56v-96h56c1.402344.003906 2.78125-.359375 4-1.054688l100-57.152343v78.894531l-84.96875 84.96875zm100 57.152343-70.574219-40.320312 70.574219-70.574219zm0 0" fill="#ffffff" data-original="#000000" style=""/></g></svg>
