<svg xmlns="http://www.w3.org/2000/svg" width="48" height="23" viewBox="0 0 48 23">
    <g fill="#323A46" fill-rule="evenodd">
        <path d="M29.826 21.701c2.087-.304 2.829-1.113 2.829-3.913V4.903c0-2.799-.742-3.609-2.829-3.912v-.27h7.675v21.25h-7.675v-.27zM44.04 6.677h-.256c-.67 3.125-1.66 4.2-4.531 4.513v.278c2.872.347 3.861 1.423 4.53 4.547h.256V6.677zM47.453 7.456c-.367-1.85-2.168-4.574-4.755-5.667-1.168-.493-2.359-.758-3.446-.797V.72h8.483v6.735h-.282zM47.453 15.237c-.367 1.85-2.168 4.573-4.755 5.667-1.168.494-2.359.758-3.446.797v.27h8.483v-6.734h-.282zM29.126 11.346a1.943 1.943 0 1 1-3.884 0c0-1.074.87-1.945 1.943-1.945 1.072 0 1.94.871 1.94 1.945M10.612 22.015c-.652-.11-1.383-.456-1.986-.78-2.847-1.636-3.508-5.638-3.242-10.726.28-5.388 1.354-8.018 3.402-9.16.544-.344 1.332-.609 1.826-.697V.446C5.663.683.835 4.1.494 10.638.184 16.586 3.3 21.607 10.612 22.214v-.2zM12.362.503v.221c.587.13 1.215.448 1.745.733 2.847 1.637 3.507 5.64 3.242 10.725-.281 5.39-1.388 8.018-3.437 9.16a4.85 4.85 0 0 1-1.55.651v.24c4.863-.335 9.542-3.746 9.877-10.18.307-5.88-2.738-10.853-9.877-11.55"/>
        <path d="M11.494 6.677h-.255c-.67 3.125-1.66 4.2-4.533 4.513v.278c2.873.347 3.863 1.423 4.533 4.547h.255c.67-3.124 1.66-4.2 4.532-4.513v-.278c-2.872-.347-3.862-1.422-4.532-4.547"/>
    </g>
</svg>
