<svg xmlns="http://www.w3.org/2000/svg" width="184" height="23" viewBox="0 0 184 23">
    <g fill="#4A4A4A" fill-rule="evenodd">
        <path d="M92.321 21.838c2.134-.312 2.891-1.143 2.891-4.017V4.59c0-2.876-.757-3.706-2.89-4.018V.295h7.846v21.82H92.32v-.277M106.851 6.411h-.26c-.686 3.208-1.698 4.313-4.634 4.634v.285c2.936.356 3.948 1.462 4.633 4.67h.261V6.41M110.342 7.21c-.377-1.899-2.217-4.695-4.861-5.818-1.194-.507-2.412-.78-3.524-.82V.296h8.673V7.21h-.288M110.342 15.2c-.377 1.9-2.217 4.696-4.861 5.82-1.194.506-2.412.777-3.524.818v.277h8.673v-6.914h-.288M91.605 11.206a1.991 1.991 0 0 1-1.985 1.997 1.991 1.991 0 0 1-1.985-1.997c0-1.103.889-1.998 1.985-1.998s1.985.895 1.985 1.998M72.678 22.16c-.667-.113-1.414-.467-2.03-.801-2.91-1.679-3.585-5.79-3.315-11.013.287-5.533 1.385-8.233 3.479-9.406.556-.353 1.36-.625 1.866-.715V.014c-5.058.243-9.995 3.75-10.343 10.464-.318 6.108 2.867 11.263 10.343 11.887v-.205M74.467.071v.228c.6.132 1.242.46 1.784.753 2.91 1.679 3.586 5.79 3.315 11.012-.288 5.533-1.42 8.232-3.514 9.406-.445.3-1.09.564-1.585.667v.247c4.972-.344 9.755-3.847 10.097-10.452C84.878 5.894 81.765.788 74.467.071"/>
        <path d="M73.58 6.411h-.26c-.687 3.208-1.698 4.313-4.634 4.634v.285c2.936.356 3.947 1.462 4.633 4.67h.261c.685-3.208 1.697-4.314 4.633-4.634v-.286c-2.936-.356-3.948-1.46-4.633-4.669M15.373 8.11H13.89v2.958h1.483c1.184 0 1.782-.59 1.782-1.56 0-.932-.598-1.398-1.782-1.398m2.068 4.382l2.19 3.504h-2.244l-1.973-3.203H13.89v3.203h-2.027V6.413h3.741c2.204 0 3.647 1.04 3.647 3.08 0 1.277-.695 2.56-1.81 2.999M21.795 15.997h2.041V6.413h-2.041zM26.488 15.997V6.413h6.49V8.11h-4.476v2.109h4.163v1.696h-4.163V14.3h4.544v1.698h-6.558M35.427 6.413h2.123s2.925 4.764 3.864 6.297h.04V6.413h1.932v9.584h-2.122s-2.857-4.67-3.864-6.299h-.04v6.299h-1.933V6.413M45.481 6.413h7.551v1.71h-2.747v7.874H48.23V8.123H45.48v-1.71M5.167 14.508c1.714 0 2.532-1.342 2.532-3.286 0-1.945-.818-3.287-2.532-3.287-1.715 0-2.531 1.342-2.531 3.287 0 1.944.816 3.286 2.531 3.286m0-8.271c2.79 0 4.64 1.876 4.64 4.985 0 3.109-1.85 4.984-4.64 4.984-2.79 0-4.64-1.875-4.64-4.984 0-3.11 1.85-4.985 4.64-4.985M151.499 8.112h-1.484v2.958h1.484c1.183 0 1.782-.589 1.782-1.561 0-.93-.599-1.397-1.782-1.397m2.067 4.382l2.192 3.505h-2.246l-1.973-3.204h-1.524V16h-2.027V6.414h3.741c2.205 0 3.648 1.041 3.648 3.08 0 1.28-.695 2.562-1.81 3M142.362 8.112h-1.388v2.958h1.388c1.265 0 1.891-.562 1.891-1.602s-.626-1.356-1.89-1.356m-1.389 4.656v3.231h-2.027V6.414h3.619c2.272 0 3.77.918 3.77 3.054 0 2.177-1.565 3.3-3.77 3.3h-1.592M157.812 16V6.413h6.49v1.698h-4.477v2.11h4.164v1.697h-4.164v2.383h4.546v1.697h-6.56M170.82 10.275c2.26.384 3.294 1.179 3.294 2.904 0 1.848-1.62 3.012-3.838 3.012-2.408 0-3.865-1.37-3.946-2.916l2.042-.329c.094.917.707 1.588 1.904 1.588.966 0 1.756-.37 1.756-1.246 0-.712-.518-1.054-2.001-1.287-1.986-.315-3.497-.972-3.497-2.903 0-1.917 1.537-2.876 3.647-2.876 1.973 0 3.456.945 3.783 2.63l-2.068.451c-.15-.876-.762-1.424-1.77-1.424-1.02 0-1.524.411-1.524 1.055 0 .821.667 1.082 2.218 1.341M180.577 10.275c2.26.384 3.293 1.179 3.293 2.904 0 1.848-1.62 3.012-3.837 3.012-2.408 0-3.865-1.37-3.946-2.916l2.041-.329c.095.917.707 1.588 1.905 1.588.965 0 1.755-.37 1.755-1.246 0-.712-.517-1.054-2-1.287-1.987-.315-3.497-.972-3.497-2.903 0-1.917 1.537-2.876 3.646-2.876 1.974 0 3.457.945 3.783 2.63l-2.068.451c-.15-.876-.763-1.424-1.77-1.424-1.02 0-1.523.411-1.523 1.055 0 .821.667 1.082 2.218 1.341M128.227 16h2.308l2.036-3.234L134.567 16h2.581l-.021-.031-3.265-4.994 2.992-4.528.023-.032h-2.433l-1.763 2.863-1.697-2.863h-2.594l.021.031 2.966 4.625-3.129 4.899-.021.03M119.91 16V6.414h6.49v1.697h-4.475v2.11h4.162v1.696h-4.162v2.383h4.543V16h-6.558"/>
    </g>
</svg>
