<svg xmlns="http://www.w3.org/2000/svg" xmlns:xlink="http://www.w3.org/1999/xlink" width="86" height="11" viewBox="0 0 86 11">
    <defs>
        <path id="a" d="M.203.634h4.833v10.357H.203z"/>
        <path id="c" d="M.87.66h4.72V11H.87z"/>
    </defs>
    <g fill="none" fill-rule="evenodd">
        <path fill="#050033" d="M43.196 10.114c.995-.145 1.348-.53 1.348-1.862V2.121c0-1.332-.353-1.717-1.348-1.861V.131h3.659v10.111h-3.659v-.128zM49.972 2.965h-.122c-.32 1.487-.791 1.999-2.16 2.147v.133c1.369.165 1.84.677 2.16 2.163h.122V2.965zM51.6 3.335c-.176-.88-1.034-2.176-2.267-2.696A4.732 4.732 0 0 0 47.69.26V.13h4.044v3.205H51.6zM51.6 7.038c-.176.88-1.034 2.176-2.267 2.697a4.752 4.752 0 0 1-1.643.379v.128h4.044V7.038H51.6zM42.862 5.187a.925.925 0 1 1-1.85 0 .925.925 0 0 1 1.85 0"/>
        <g transform="translate(29 -.634)">
            <mask id="b" fill="#fff">
                <use xlink:href="#a"/>
            </mask>
            <path fill="#050033" d="M5.036 10.896c-.311-.052-.66-.217-.947-.372-1.357-.777-1.672-2.682-1.545-5.103.134-2.564.645-3.815 1.622-4.358.259-.164.635-.29.87-.332V.633C2.676.746.375 2.371.213 5.483c-.148 2.83 1.337 5.22 4.823 5.508v-.095z" mask="url(#b)"/>
        </g>
        <g transform="translate(34 -.634)">
            <mask id="d" fill="#fff">
                <use xlink:href="#c"/>
            </mask>
            <path fill="#050033" d="M.87.66v.105c.28.062.58.214.832.35 1.357.778 1.672 2.683 1.545 5.103-.133 2.564-.66 3.815-1.638 4.36a2.311 2.311 0 0 1-.739.308V11c2.318-.159 4.55-1.782 4.71-4.843C5.724 3.358 4.272.993.87.66" mask="url(#d)"/>
        </g>
        <path fill="#050033" d="M34.457 2.965h-.122c-.32 1.487-.791 1.999-2.161 2.147v.133c1.37.165 1.842.677 2.16 2.163h.123c.319-1.486.79-1.998 2.16-2.147v-.132c-1.37-.165-1.841-.677-2.16-2.164M71.216 5.767l1 1.589h-1.025l-.899-1.453h-.696v1.453h-.924V3.01h1.706c1.006 0 1.664.472 1.664 1.397 0 .579-.317 1.16-.826 1.359m-.942-1.986h-.678v1.34h.677c.54 0 .813-.267.813-.707 0-.422-.273-.633-.813-.633M55.97 7.356V3.01h2.96v.77h-2.043v.956h1.9v.769h-1.9v1.08h2.074v.77zM65.472 5.89v1.466h-.925V3.01h1.651c1.037 0 1.72.416 1.72 1.384 0 .987-.714 1.496-1.72 1.496h-.726zm.633-2.11h-.633v1.34h.633c.577 0 .863-.253.863-.725s-.286-.614-.863-.614zM73.153 7.356V3.01h2.961v.77h-2.042v.956h1.899v.769h-1.899v1.08h2.073v.77zM79.087 4.761c1.031.173 1.502.534 1.502 1.316 0 .838-.738 1.365-1.75 1.365-1.099 0-1.763-.62-1.8-1.322l.931-.149c.043.416.323.72.87.72.44 0 .8-.167.8-.565 0-.323-.236-.478-.913-.583-.906-.143-1.595-.44-1.595-1.316 0-.869.701-1.303 1.663-1.303.9 0 1.577.428 1.726 1.191l-.943.205c-.069-.397-.348-.645-.807-.645-.466 0-.696.186-.696.477 0 .373.304.491 1.012.61M83.538 4.761c1.03.173 1.502.534 1.502 1.316 0 .838-.74 1.365-1.751 1.365-1.098 0-1.762-.62-1.8-1.322l.932-.149c.043.416.323.72.868.72.44 0 .8-.167.8-.565 0-.323-.235-.478-.911-.583-.906-.143-1.595-.44-1.595-1.316 0-.869.7-1.303 1.663-1.303.9 0 1.577.428 1.726 1.191l-.944.205c-.068-.397-.347-.645-.807-.645-.465 0-.695.186-.695.477 0 .373.304.491 1.012.61M59.657 7.356h1.053l.93-1.465.91 1.465h1.177l-.01-.014-1.489-2.264 1.365-2.053.01-.014h-1.11l-.804 1.298-.774-1.298h-1.183l.01.014 1.352 2.097-1.427 2.22zM8.588 5.765l1.01 1.605H8.563l-.91-1.467h-.702V7.37h-.935V2.98h1.725c1.016 0 1.681.476 1.681 1.41 0 .586-.319 1.174-.834 1.375m-.954-2.008h-.683v1.355h.683c.546 0 .823-.27.823-.715 0-.427-.277-.64-.823-.64M10.596 7.372h.941V2.979h-.941zM12.76 7.371V2.98h2.993v.778H13.69v.966h1.92v.778h-1.92v1.092h2.095v.778zM16.882 2.98h.98l1.781 2.885h.018V2.98h.891v4.392h-.978s-1.318-2.14-1.782-2.886h-.019v2.886h-.89V2.98zM21.52 2.98H25v.783h-1.267v3.608h-.948V3.763H21.52zM2.928 2.899c1.287 0 2.14.86 2.14 2.285 0 1.424-.853 2.284-2.14 2.284-1.286 0-2.14-.86-2.14-2.284 0-1.425.854-2.285 2.14-2.285m0 3.79c.79 0 1.167-.614 1.167-1.505 0-.891-.376-1.507-1.167-1.507S1.76 4.293 1.76 5.184c0 .89.376 1.506 1.167 1.506"/>
    </g>
</svg>
