<svg xmlns="http://www.w3.org/2000/svg" width="57" height="10" viewBox="0 0 57 10">
    <path fill="#050033" fill-rule="evenodd" d="M18.01.595v.343h.926v8.27h-.947v.381h3.223v-.38h-.931V5.303s.475-.01.995.004c.553.008.951.136.951 1.127v.143h.36V3.572h-.36v.134c0 1.147-.433 1.234-1.31 1.234h-.637V.95s.642-.008 1.71 0c1.073.011 1.614.643 1.782 2.131h.316L23.996.595h-5.988zm22.573 8.987h.01V6.584h-.348c-.044 1.806-.83 2.547-2.69 2.624h-1.218V.944h.926V.595h-3.221l.002.35h.919v8.263h-1.14v.374l6.76.007v-.007zm-10.34-5.876c0 1.147-.425 1.234-1.311 1.234h-.633V.95s.642-.008 1.713 0c1.066.011 1.607.67 1.77 2.161h.323L32.014.595h-5.986v.343h.928v8.27h-.947v.374h3.22v-.374h-.93V5.304s.476-.01.992.004c.553.008.953.162.953 1.152l.002.118h.362V3.572h-.363l-.002.134zM3.407 4.743l-1.1.01V.963S2.982.954 3.8.967c.798.012 1.223.551 1.223 1.771 0 1.42-.385 1.973-1.617 2.005zm4.508 4.715l-.1-.297c-1.553.517-.85-1.028-1.51-3.039C5.9 4.883 4.418 4.883 4.418 4.883c1.922-.263 2.285-1.234 2.293-2.1.014-1.068-.68-2.188-3.089-2.188H.01V.95h.933v8.258H0v.381h3.25v-.38h-.945v-4.01s.627-.007 1.513.006c1.395.023 1.062 1.765 1.485 3.54.314 1.341 2.032 1.121 2.612.713zm48.97-2.994c-.102-1.319-.71-1.615-2.739-2.184-.81-.224-2.487-.38-2.457-1.87.017-.967.777-1.423 1.85-1.423 1.254 0 2.16.531 2.552 2.46l.371-.012-.038-2.782-.373.006c.026.41-.015.66-.281.601-.816-.192-1.03-.665-2.448-.665-1.593 0-2.927 1.188-2.68 2.931.265 1.882 2.93 1.595 4.325 2.462.581.364.806.81.809 1.631.002 1.033-.765 1.65-1.798 1.65-1.424 0-2.684-.898-3.172-3.093l-.304-.01.003 3.423.361-.007c.017-.36.133-.466.387-.47.365-.008 1.213.517 2.734.517 1.802 0 3.035-1.315 2.899-3.165zm-11.85 2.744h-.947V5.3c.105-.005.515-.006.972.003.553.01.95.16.95 1.152v.124l.358.006V3.562h-.358v.14c0 1.147-.432 1.23-1.316 1.23h-.606l-.014-3.96h1.639l.223.002c1.07.013 1.608.642 1.771 2.132h.32L47.94.596h-6.13v.363h.922v8.25h-.905l-.005.373h6.474l-.002-2.998-.35-.006c-.012 1.985-.803 2.63-2.91 2.63zm-32.766-6.6l1.463 3.768H10.98l1.29-3.768zm-1.127 6.607s-.335.021-.65-.03c-.245-.035-.418-.248-.226-.779.194-.56.566-1.623.566-1.623h3.056l.925 2.425h-.968l-.002.374h3.396l-.002-.374h-.99L12.967.595h-.385S9.99 8.025 9.852 8.406c-.31.855-.636.797-1.194.81v.373h.006l2.478-.007v-.367z"/>
</svg>
