<svg xmlns="http://www.w3.org/2000/svg" xmlns:xlink="http://www.w3.org/1999/xlink" width="80" height="14" viewBox="0 0 80 14">
    <defs>
        <path id="a" d="M0 .518h79.223V14H0z"/>
    </defs>
    <g fill="none" fill-rule="evenodd">
        <path fill="#050033" d="M62.435 10.503a.836.836 0 0 1 .092-.268c.049-.084.143-.125.28-.125.057 0 .28.069.673.206.397.138.775.207 1.136.207.719 0 1.308-.207 1.77-.618a1.97 1.97 0 0 0 .696-1.537 1.896 1.896 0 0 0-.388-1.187c-.262-.33-.717-.696-1.36-1.09l-1.026-.634c-.385-.236-.668-.464-.85-.679a1.145 1.145 0 0 1-.274-.771c0-.334.118-.597.354-.783.239-.191.519-.284.838-.284.412 0 .827.147 1.245.444.42.298.729.82.919 1.571h.279l-.256-2.49h-.241a.69.69 0 0 1-.131.291c-.054.069-.152.103-.297.103-.053 0-.268-.065-.645-.195-.372-.133-.692-.199-.958-.199-.648 0-1.167.196-1.56.588-.391.392-.587.883-.587 1.473 0 .446.166.853.498 1.222.179.195.418.386.719.575l.998.623c.575.359.952.626 1.13.804.274.284.41.616.41.996 0 .422-.136.752-.41.988a1.422 1.422 0 0 1-.965.353c-.688 0-1.265-.271-1.728-.814-.267-.314-.5-.734-.697-1.258h-.268l.348 2.488h.256zM28.917 10.155c-.476-.034-.784-.104-.925-.21-.14-.11-.211-.394-.211-.846V3.9c0-.43.07-.709.21-.83.142-.125.45-.198.926-.223V2.63h-3.458v.216c.475.025.783.098.923.223.14.121.212.4.212.83v5.2c0 .452-.071.736-.212.845-.14.107-.448.177-.923.211v.211h3.458v-.21zM50.075 3.772c.485-.59 1.078-.885 1.78-.885.676 0 1.263.283 1.757.852.494.567.74 1.487.74 2.763 0 1.257-.244 2.178-.735 2.75-.486.573-1.075.858-1.762.858-.705 0-1.298-.292-1.78-.88-.486-.59-.727-1.498-.727-2.729 0-1.234.242-2.142.727-2.729m1.78 6.76c1.022 0 1.895-.335 2.619-1.005.808-.748 1.21-1.757 1.21-3.025 0-1.25-.392-2.248-1.17-2.998-.72-.692-1.607-1.04-2.66-1.04-1.05 0-1.935.345-2.654 1.034-.785.753-1.177 1.755-1.177 3.003 0 1.189.368 2.163 1.103 2.917.721.746 1.633 1.115 2.729 1.115M14.334 3.481c0-.175.036-.285.108-.332.076-.05.28-.074.61-.074.492 0 .886.066 1.181.2.557.248.833.71.833 1.389 0 .704-.309 1.184-.928 1.438-.363.144-.963.231-1.804.263V3.482zm1.056 6.675c-.443-.039-.729-.114-.862-.229-.13-.117-.194-.393-.194-.827V6.798l.65-.029 2.785 3.598h1.883v-.212a1.451 1.451 0 0 1-.57-.159 1.6 1.6 0 0 1-.445-.402l-2.409-2.962c.65-.098 1.164-.302 1.541-.615.381-.312.571-.76.571-1.343 0-.868-.427-1.462-1.278-1.788-.45-.17-1.01-.256-1.685-.256h-3.235v.216c.421.035.693.116.816.247.126.127.188.394.188.806v5.064c0 .489-.055.798-.166.93-.11.133-.389.221-.838.262v.212h3.248v-.212z"/>
        <g transform="translate(0 -.518)">
            <mask id="b" fill="#fff">
                <use xlink:href="#a"/>
            </mask>
            <path fill="#050033" d="M44.464 12.758l-3.787-5.852L44.79.518h-1.702l-3.476 5.11-3.477-5.11h-1.701l4.113 6.388-3.787 5.852-34.76.05 6.852 1.09 28.858.101 3.902-5.96 3.903 5.96 28.857-.101 6.852-1.09z" mask="url(#b)"/>
        </g>
    </g>
</svg>
