<?xml version="1.0" encoding="UTF-8"?>
<svg id="Layer_1" xmlns="http://www.w3.org/2000/svg" version="1.1" viewBox="0 0 30 30">
  <!-- Generator: Adobe Illustrator 29.6.1, SVG Export Plug-In . SVG Version: 2.1.1 Build 9)  -->
  <defs>
    <style>
      .st0 {
        fill: #323a46;
      }
    </style>
  </defs>
  <path class="st0" d="M12.87.01s-.93,2.37-5.04,6.48C3.75,10.6,0,12.97,0,12.97h4.74s1.83.15,1.83,2.1-1.71,1.92-1.71,1.92H0s4.08,2.79,7.35,6.06c3.27,3.27,5.52,6.96,5.52,6.96v-4.8s0-1.95,2.1-1.95c1.8,0,1.95,1.89,1.95,1.89v4.86s3.18-4.53,6.03-7.41c2.88-2.88,7.05-5.67,7.05-5.67h-4.98s-1.74-.15-1.74-1.98,1.65-1.98,1.65-1.98h5.04s-4.29-2.91-7.26-5.88S16.83-.02,16.83-.02v4.92s-.09,1.77-2.01,1.77-1.98-1.83-1.98-1.83V0h.03Z"/>
</svg>