<svg xmlns="http://www.w3.org/2000/svg" width="36" height="13" viewBox="0 0 36 13">
    <path fill="#050033" fill-rule="evenodd" d="M31.766 5.018c-2.089-.709-2.662-1.214-2.662-2.35 0-1.105.815-1.82 2.076-1.82 1.48 0 2.487.926 2.992 2.751h.74V1.042C33.942.38 32.628 0 31.3 0c-1.178 0-2.172.331-2.873.956-.685.61-1.047 1.458-1.047 2.452 0 2.053 1.323 2.9 3.61 3.668 2.105.714 2.747 1.26 2.747 2.333 0 1.297-.876 2.043-2.402 2.043-1.57 0-2.657-1.025-3.233-3.043h-.84l.134 2.763c.701.557 2.066 1.146 3.818 1.146 1.207 0 2.292-.316 3.057-.887.835-.624 1.276-1.53 1.276-2.624 0-2.113-1.386-2.989-3.78-3.788zm-9.409 3.713c-1.064 1.932-1.423 2.582-2.818 2.582h-.824c-1.068 0-1.646-.193-1.646-1.218V2.17c0-1.006.498-1.21 1.614-1.266V.171h-5.349v.731c1.151.056 1.633.253 1.633 1.267v7.96c0 1.044-.505 1.247-1.633 1.285v.731h9.223l.568-3.497h-.722l-.046.083zM4.503 5.018c-2.09-.709-2.66-1.214-2.66-2.35 0-1.105.814-1.82 2.074-1.82 1.48 0 2.487.926 2.993 2.751h.74V1.042C6.68.38 5.365 0 4.036 0 2.86 0 1.865.33 1.164.955.48 1.565.118 2.413.118 3.407c0 2.053 1.323 2.9 3.608 3.668 2.106.714 2.748 1.26 2.748 2.333 0 1.297-.875 2.043-2.402 2.043-1.57 0-2.657-1.025-3.232-3.043H0l.134 2.763c.7.557 2.065 1.146 3.818 1.146 1.206 0 2.292-.316 3.057-.887.834-.624 1.275-1.53 1.275-2.624 0-2.113-1.386-2.989-3.78-3.788z"/>
</svg>
