<?xml version="1.0" encoding="UTF-8"?>
<svg xmlns="http://www.w3.org/2000/svg" xmlns:xlink="http://www.w3.org/1999/xlink" width="41px" height="20px" viewBox="0 0 40 20" version="1.1">
<g id="surface1">
<path style=" stroke:none;fill-rule:nonzero;fill:#050033;fill-opacity:1;" d="M 35.042969 9.84375 C 32.660156 15.261719 30.714844 19.699219 30.714844 19.707031 C 30.71875 19.726562 31.308594 19.996094 31.320312 19.984375 C 31.335938 19.964844 39.992188 0.292969 39.984375 0.285156 C 39.980469 0.277344 39.382812 0 39.375 0 C 39.371094 0 37.421875 4.429688 35.042969 9.84375 Z M 35.042969 9.84375 "/>
<path style=" stroke:none;fill-rule:nonzero;fill:#050033;fill-opacity:1;" d="M 5.015625 1.601562 C 4.71875 1.625 4.230469 1.699219 3.996094 1.75 C 2.40625 2.105469 1.246094 3.03125 0.839844 4.257812 C 0.601562 4.984375 0.601562 5.96875 0.84375 6.734375 C 1.007812 7.257812 1.25 7.613281 1.746094 8.070312 C 2.503906 8.769531 2.808594 8.953125 3.957031 9.386719 C 4.59375 9.632812 4.902344 9.734375 5.632812 9.957031 C 7.136719 10.410156 7.40625 10.496094 7.839844 10.644531 C 8.496094 10.871094 9.261719 11.222656 9.601562 11.449219 C 9.796875 11.582031 10.3125 12.050781 10.429688 12.203125 C 10.605469 12.433594 10.734375 12.722656 10.835938 13.109375 C 10.996094 13.71875 10.921875 14.496094 10.644531 15.109375 C 10.464844 15.511719 10.09375 15.953125 9.691406 16.246094 C 9.441406 16.429688 8.9375 16.683594 8.613281 16.792969 C 7.621094 17.121094 6.179688 17.210938 5.207031 17.007812 C 4.183594 16.792969 3.25 16.261719 2.421875 15.417969 C 1.617188 14.605469 1.039062 13.628906 0.621094 12.382812 C 0.554688 12.1875 0.5 12.019531 0.492188 12.003906 C 0.488281 11.988281 0.414062 12 0.246094 12.046875 C 0.117188 12.082031 0.0078125 12.113281 0.0078125 12.113281 C 0 12.121094 1.167969 17.648438 1.1875 17.714844 C 1.195312 17.746094 1.222656 17.753906 1.34375 17.753906 L 1.488281 17.753906 L 1.566406 17.632812 C 1.9375 17.039062 2.238281 16.992188 3.433594 17.339844 C 4.199219 17.5625 4.867188 17.71875 5.328125 17.785156 C 6.390625 17.933594 7.859375 17.835938 8.917969 17.546875 C 10.675781 17.066406 11.890625 15.953125 12.273438 14.46875 C 12.390625 14.023438 12.410156 13.828125 12.410156 13.246094 C 12.410156 12.738281 12.40625 12.703125 12.351562 12.457031 C 12.207031 11.839844 11.929688 11.292969 11.5625 10.902344 C 11.085938 10.402344 10.316406 9.910156 9.460938 9.5625 C 8.703125 9.253906 8.316406 9.125 6.828125 8.695312 C 5.980469 8.449219 5.484375 8.289062 4.929688 8.078125 C 4.304688 7.839844 4.03125 7.703125 3.578125 7.402344 C 2.9375 6.976562 2.691406 6.71875 2.445312 6.226562 C 2.320312 5.972656 2.214844 5.652344 2.167969 5.390625 C 2.121094 5.09375 2.136719 4.605469 2.210938 4.316406 C 2.320312 3.894531 2.574219 3.484375 2.898438 3.195312 C 3.492188 2.675781 4.265625 2.394531 5.320312 2.324219 C 6.714844 2.222656 7.984375 2.671875 9.199219 3.695312 C 9.441406 3.898438 9.941406 4.40625 10.140625 4.652344 C 10.65625 5.285156 11.105469 6.054688 11.414062 6.851562 C 11.476562 7.003906 11.527344 7.132812 11.53125 7.136719 C 11.539062 7.144531 11.964844 7.035156 11.984375 7.015625 C 11.992188 7.007812 11.679688 5.808594 11.289062 4.347656 L 10.582031 1.695312 L 10.308594 1.679688 L 10.25 1.828125 C 10.148438 2.09375 9.992188 2.269531 9.800781 2.324219 C 9.585938 2.386719 9.160156 2.324219 8.625 2.152344 C 7.78125 1.882812 7.105469 1.710938 6.660156 1.640625 C 6.324219 1.585938 5.40625 1.566406 5.015625 1.601562 Z M 5.015625 1.601562 "/>
<path style=" stroke:none;fill-rule:nonzero;fill:#050033;fill-opacity:1;" d="M 21.777344 1.601562 C 19.820312 1.746094 18.230469 2.457031 16.972656 3.730469 C 15.496094 5.230469 14.75 7.238281 14.75 9.71875 C 14.75 11.667969 15.214844 13.335938 16.132812 14.683594 C 16.890625 15.804688 17.96875 16.695312 19.179688 17.21875 C 20.871094 17.945312 23.175781 18.058594 25.058594 17.511719 C 27.078125 16.921875 28.757812 15.410156 29.59375 13.429688 C 29.921875 12.660156 30.113281 11.894531 30.230469 10.921875 C 30.285156 10.460938 30.285156 8.976562 30.230469 8.515625 C 30.007812 6.632812 29.421875 5.25 28.3125 3.984375 C 27.191406 2.703125 25.601562 1.882812 23.792969 1.652344 C 23.207031 1.578125 22.355469 1.554688 21.777344 1.601562 Z M 22.980469 2.324219 C 24.398438 2.425781 25.550781 2.960938 26.5 3.957031 C 26.808594 4.28125 26.976562 4.492188 27.238281 4.886719 C 27.554688 5.371094 27.839844 5.976562 28.039062 6.59375 C 28.570312 8.226562 28.632812 10.5 28.199219 12.28125 C 27.914062 13.429688 27.4375 14.398438 26.746094 15.207031 C 25.933594 16.164062 24.921875 16.769531 23.742188 17.003906 C 23.308594 17.089844 23.148438 17.105469 22.511719 17.105469 C 21.984375 17.101562 21.851562 17.09375 21.601562 17.054688 C 20.4375 16.867188 19.496094 16.410156 18.695312 15.628906 C 17.273438 14.246094 16.554688 12.261719 16.554688 9.730469 C 16.554688 7.667969 17.019531 5.984375 17.957031 4.660156 C 18.269531 4.214844 18.78125 3.683594 19.1875 3.375 C 20.222656 2.585938 21.539062 2.222656 22.980469 2.324219 Z M 22.980469 2.324219 "/>
</g>
</svg>
