<svg xmlns="http://www.w3.org/2000/svg" width="56" height="17" viewBox="0 0 56 17">
    <g fill="#050033" fill-rule="evenodd">
        <path d="M42.302 2.23c.023-.234.053-.558.053-.893 0-.567-.084-1.117-.084-1.208h-.28c0 .09-.085.64-.085 1.208 0 .57.086 1.118.086 1.209h2.405v-.317h-2.095zM36.704 2.23c.023-.202.047-.477.052-.767h1.563V1.15h-1.566a8.975 8.975 0 0 0-.049-.702h2.194V.129h-2.504c0 .09-.086.64-.086 1.208 0 .57.086 1.118.086 1.209h2.563v-.317h-2.253zM33.603.129h-2.83v.318h1.246c-.025.23-.053.555-.053.89 0 .57.082 1.118.082 1.21h.277c0-.092.086-.64.086-1.21 0-.335-.029-.66-.052-.89h1.244V.129zM27.87 2.546c0-.091.087-.64.087-1.21 0-.566-.086-1.118-.086-1.207h-.28c0 .089-.084.64-.084 1.208 0 .569.085 1.118.085 1.209h.279zM24.669.447V.129h-2.406c0 .09-.084.64-.084 1.208 0 .57.084 1.118.084 1.209h.28c0-.084.067-.54.08-1.049h1.391V1.18h-1.391a10.282 10.282 0 0 0-.05-.733h2.096zM17.572 2.283c-.413 0-1.19-.644-1.19-.946 0-.302.777-.947 1.19-.947.416 0 1.19.645 1.19.947 0 .302-.774.946-1.19.946m0-2.283c-.467 0-1.63.95-1.63 1.337 0 .388 1.163 1.335 1.63 1.335.468 0 1.63-.947 1.63-1.335S18.04 0 17.571 0M12.942 1.425c-.57-.355-1.89-.389-1.89-.73 0-.176.412-.347.892-.329.268.01.688.108.977.33l.193-.276A2.298 2.298 0 0 0 11.89.06c-.834-.012-1.294.397-1.294.663 0 .213.267.408.488.498.8.328 1.681.323 1.681.663 0 .192-.373.416-.89.408-.374-.005-.844-.168-1.129-.405l-.203.296c.29.206.815.427 1.332.427.535 0 .875-.128 1.108-.317.231-.185.269-.364.269-.44 0-.108-.091-.295-.31-.428M7.805 12.869c-.45 2.739-1.185 3.625-2.846 3.625h-.975c-.6 0-.78-.152-.78-.975V8.746c0-1.975.33-2.112 1.589-2.201l-.014-.12H.014L0 6.545c1.256.089 1.588.226 1.588 2.2v5.56c0 1.977-.332 2.112-1.588 2.203l.014.118h7.853l.043-.042v-3.715h-.105zM17.633 13.318c-.449 2.74-1.468 3.176-3.13 3.176H13.08c-.6 0-.782-.154-.782-.975v-4.03h.945c1.213 0 1.739.673 1.798 1.719h.12v-3.58h-.12c-.059 1.05-.585 1.723-1.798 1.723H12.3V7.535c0-.826.182-.976.782-.976h1.27c1.665 0 2.547-.043 2.998 2.697h.105V6.47l-.046-.045H9.095v.118c1.255.09 1.586.228 1.586 2.205v5.557c0 1.978-.331 2.112-1.586 2.203v.118h8.613l.046-.042v-3.266h-.12zM29.754 11.398h-4.795v.121c1.933.045 2.263.224 2.263 1.755v1.704c0 1.348-1.483 1.71-2.411 1.71-2.099 0-3.52-1.814-3.52-5.139 0-3.327 1.195-5.186 3.279-5.186 2.055 0 2.561.781 3.284 3l.117-.019V6.169l-.117-.016c-.484.961-.841.51-1.8.272a5.994 5.994 0 0 0-1.484-.195c-2.935 0-5.093 1.843-5.093 5.32 0 3.475 2.38 5.272 5.168 5.272 1.798 0 2.158-.793 4.12-1.018v-2.53c0-1.531-.014-1.602.989-1.755v-.12zM50.684 6.425h-5.601v.133c1.706.046 2.019.81 2.019 2.787v4.9l-6.8-7.82h-9.755v.12c1.26.088 1.59.225 1.59 2.202v5.557c0 1.979-.33 2.113-1.59 2.204v.118h8.69l.046-.043V13.33l-.09-.014c-.449 2.742-1.495 3.178-3.162 3.178h-1.498c-.598 0-.78-.15-.78-.974v-4.031h.946c1.212 0 1.737.674 1.796 1.72h.12v-3.58h-.12c-.059 1.05-.584 1.723-1.796 1.723h-.945V7.534c0-.827.181-.976.779-.976h3.012c.754 0 .96.197 1.58.89l7.993 9.21.12-.016V9.345c0-1.977.36-2.787 1.59-2.787h1.706c1.873 0 3.672 1.632 3.672 4.962 0 3.324-1.8 4.973-3.672 4.973h-1.137v.133h1.287c2.728 0 5.335-1.633 5.335-5.106s-2.607-5.095-5.335-5.095"/>
    </g>
</svg>
