<svg xmlns="http://www.w3.org/2000/svg" width="69" height="7" viewBox="0 0 69 7">
    <g fill="#050033" fill-rule="evenodd">
        <path d="M63.874 6.44h5.12v-.905h-4.243c.043-.47.102-1.088.102-1.735 0-1.182-.179-2.353-.179-2.508v-.118h-.8v.118c0 .155-.174 1.326-.174 2.508 0 1.19.174 2.352.174 2.511v.13zM52.51 6.44h5.44v-.905h-4.555c.035-.385.073-.85.086-1.34h3.176v-.91h-3.18c-.01-.45-.053-.874-.082-1.206h4.436v-.905H52.51v.118c.006.16-.17 1.326-.17 2.508 0 1.19.176 2.352.17 2.511v.13zM43.518 3.801c0 1.188.175 2.35.17 2.513v.126h.808v-.126c0-.162.166-1.325.166-2.513 0-.637-.041-1.254-.085-1.724h2.505v-.901h-5.98v.901h2.516c-.054.47-.1 1.087-.1 1.724M34.646 6.44h.797v-.129c0-.16.177-1.317.177-2.511 0-1.182-.177-2.347-.177-2.508v-.118h-.797v.118c.003.16-.174 1.326-.174 2.508 0 1.194.177 2.352.174 2.511v.13zM23.832 6.44h.805v-.129c-.009-.133.125-1.043.17-2.06h2.823v-.903h-2.823c-.024-.472-.06-.916-.093-1.27h4.24v-.904h-5.122v.118c0 .155-.174 1.326-.174 2.508 0 1.194.174 2.352.174 2.511v.13zM12.346 5.586c.722.603 1.535 1.115 2.08 1.122.55-.007 1.361-.52 2.092-1.122.707-.61 1.321-1.275 1.339-1.786-.018-.508-.632-1.163-1.339-1.778-.73-.603-1.542-1.101-2.091-1.112-.546.01-1.359.509-2.081 1.112-.718.615-1.323 1.27-1.34 1.778.017.511.622 1.176 1.34 1.786m.631-2.908c.49-.398 1.09-.725 1.45-.72.365-.005.97.322 1.447.72.491.405.864.903.847 1.122.017.227-.356.734-.847 1.125-.477.406-1.082.721-1.447.716-.36.005-.96-.31-1.45-.716-.483-.39-.857-.898-.84-1.125-.017-.22.357-.717.84-1.122M4.13 5.398c-.286.16-.716.262-1.194.262H2.87c-.73-.013-1.67-.33-2.214-.803l-.104-.09L0 5.591l.096.069c.608.439 1.686.911 2.774.911h.005c1.1 0 1.825-.274 2.321-.68.49-.41.584-.82.584-1.014-.003-.289-.212-.691-.684-.999-.613-.38-1.58-.586-2.385-.776-.408-.097-.778-.2-1.033-.312-.257-.113-.368-.227-.361-.31-.01-.089.131-.248.425-.36.286-.13.69-.214 1.133-.214h.127c.52.022 1.366.229 1.922.668l.097.077.526-.787-.1-.07c-.83-.556-1.753-.756-2.547-.768h-.09c-1.662.011-2.635.83-2.66 1.5.014.557.606.955 1.065 1.158.83.342 1.69.512 2.332.68.661.165 1.035.356 1.006.575.01.124-.13.308-.423.459"/>
    </g>
</svg>
