<svg xmlns="http://www.w3.org/2000/svg" xmlns:xlink="http://www.w3.org/1999/xlink" width="68" height="17" viewBox="0 0 68 17">
    <defs>
        <path id="a" d="M0 17h67.743V.851H0z"/>
    </defs>
    <g fill="none" fill-rule="evenodd">
        <path fill="#050033" d="M0 .077v1.184h1.255v4.385h1.187V1.261h1.262V.077zM8.905.077v2.146h-1.95V.077H5.77v5.57h1.186V3.431h1.95v2.214h1.189V.077zM12.53.077v5.57h3.1V4.543h-1.912V3.39h1.913V2.303h-1.913V1.18h1.913V.077zM24.626.077v2.146h-1.951V.077h-1.187v5.57h1.187V3.431h1.95v2.214h1.187V.077z"/>
        <g transform="translate(0 -.851)">
            <path fill="#050033" d="M30.838 1.98c-.46-.009-.833.152-1.116.483-.282.331-.424.758-.424 1.282 0 .495.144.905.433 1.23.288.325.651.487 1.09.487.462 0 .834-.16 1.118-.481.284-.32.426-.744.426-1.271 0-.517-.139-.932-.418-1.247-.278-.313-.648-.474-1.109-.483m-2.777 1.73c0-.823.27-1.501.808-2.038.538-.536 1.176-.803 1.914-.803.817 0 1.492.269 2.026.807.534.539.801 1.22.801 2.043 0 .818-.264 1.496-.793 2.036-.528.54-1.193.811-1.996.811-.802 0-1.463-.269-1.982-.807-.519-.537-.778-1.219-.778-2.049M35.89.928h1.17v3.406c0 .317.086.572.26.764a.876.876 0 0 0 .683.288c.324 0 .576-.097.755-.29.18-.194.27-.468.27-.82V.927h1.165v3.605c0 .317-.08.646-.243.987a1.698 1.698 0 0 1-.749.782 2.34 2.34 0 0 1-1.13.272c-.756 0-1.308-.213-1.658-.638-.349-.426-.524-.874-.524-1.343V.928zM45.722 1.432l-.738.82c-.389-.233-.669-.348-.839-.348a.45.45 0 0 0-.34.15.505.505 0 0 0-.143.358c0 .275.247.512.74.713.36.156.632.296.817.422.184.126.34.301.463.524.124.223.187.465.187.725 0 .48-.19.894-.573 1.247a1.919 1.919 0 0 1-1.352.532c-.57 0-1.135-.273-1.69-.816l.78-.92c.35.364.676.547.981.547.143 0 .28-.064.411-.192.131-.128.197-.263.197-.405 0-.29-.303-.546-.91-.768-.347-.128-.593-.247-.739-.36a1.275 1.275 0 0 1-.366-.487 1.53 1.53 0 0 1-.149-.655c0-.495.16-.898.478-1.205.32-.309.735-.463 1.25-.463.61 0 1.121.194 1.535.581M48.017.928h3.1v1.103h-1.912v1.124h1.913v1.086h-1.913v1.154h1.913v1.102h-3.1zM59.583 1.98c-.46-.009-.833.152-1.116.483-.282.331-.424.758-.424 1.282 0 .495.144.905.433 1.23.288.325.651.487 1.09.487.462 0 .834-.16 1.118-.481.284-.32.426-.744.426-1.271 0-.517-.139-.932-.418-1.247-.278-.313-.648-.474-1.109-.483m-2.777 1.73c0-.823.27-1.501.808-2.038.538-.536 1.176-.803 1.914-.803.817 0 1.492.269 2.026.807.534.539.801 1.22.801 2.043 0 .818-.264 1.496-.793 2.036-.528.54-1.193.811-1.996.811-.802 0-1.463-.269-1.982-.807-.519-.537-.778-1.219-.778-2.049M64.643.928h3.1v1.077h-1.921v1.137h1.921v1.086H65.83v2.27h-1.187zM11.348 12.406c-.461-.01-.833.152-1.116.483-.282.33-.424.758-.424 1.282 0 .495.144.905.433 1.23.288.325.65.487 1.09.487.462 0 .834-.16 1.118-.481.284-.32.426-.744.426-1.271 0-.517-.14-.932-.418-1.247-.278-.313-.648-.474-1.11-.483m-2.776 1.73c0-.823.269-1.501.808-2.038.538-.536 1.176-.803 1.914-.803.817 0 1.492.269 2.026.807.534.539.8 1.22.8 2.043 0 .818-.263 1.496-.791 2.036-.53.54-1.194.81-1.997.81-.802 0-1.463-.268-1.982-.806-.52-.537-.778-1.22-.778-2.05M17.581 12.346v1.451h.258c.62 0 .93-.256.93-.768a.594.594 0 0 0-.242-.498c-.162-.123-.386-.185-.672-.185h-.274zm-1.194-.992H18.2c.55 0 .986.146 1.308.44.32.294.48.692.48 1.192 0 .286-.073.582-.22.89-.147.308-.418.55-.813.725l1.54 2.322h-1.363l-1.425-2.155h-.134v2.155h-1.188v-5.569z"/>
            <mask id="b" fill="#fff">
                <use xlink:href="#a"/>
            </mask>
            <path fill="#050033" d="M22.637 16.923h1.187v-5.569h-1.187zM30.896 12.563l-.789.746a1.707 1.707 0 0 0-.612-.646 1.473 1.473 0 0 0-.763-.215c-.43 0-.805.166-1.122.497a1.63 1.63 0 0 0-.476 1.17c0 .478.158.884.476 1.216.317.332.7.498 1.147.498.243 0 .477-.062.702-.187.226-.124.407-.357.544-.699h-1.305v-1.086h2.542v.721c0 .37-.126.768-.377 1.194a2.297 2.297 0 0 1-.994.933 2.859 2.859 0 0 1-1.246.295 2.542 2.542 0 0 1-1.926-.835c-.523-.558-.784-1.247-.784-2.067 0-.777.27-1.442.808-1.994.538-.551 1.186-.827 1.944-.827.967 0 1.711.429 2.231 1.286M33.355 16.923h1.187v-5.569h-1.187zM40.575 11.354h1.162v5.57H40.58l-2.518-3.606v3.605h-1.187v-5.569h1.174l2.526 3.58zM46.505 13.177l-.647 1.643h1.308l-.661-1.643zm-.46-1.823h.92l2.244 5.57h-1.195l-.441-1.096H45.46l-.432 1.095h-1.19l2.207-5.569zM51.357 11.354h1.179v4.37h1.623v1.2h-2.802zM59.377 11.858l-.738.819c-.389-.232-.668-.347-.839-.347a.45.45 0 0 0-.34.15.504.504 0 0 0-.142.358c0 .275.246.512.738.713.361.156.634.296.818.422.184.126.34.301.463.524.124.223.187.465.187.725 0 .479-.19.894-.573 1.247A1.916 1.916 0 0 1 57.6 17c-.57 0-1.134-.272-1.69-.815l.78-.92c.35.364.676.547.981.547.143 0 .28-.064.411-.192.131-.128.197-.263.197-.405 0-.29-.303-.546-.91-.768-.347-.128-.593-.247-.738-.36a1.266 1.266 0 0 1-.367-.487 1.545 1.545 0 0 1-.149-.655c0-.495.16-.898.478-1.205.32-.309.735-.463 1.25-.463.61 0 1.121.194 1.535.581" mask="url(#b)"/>
        </g>
    </g>
</svg>
